<?xml version="1.0" encoding="UTF-8" standalone="no"?>
<!-- Created with Inkscape (http://www.inkscape.org/) -->

<svg
   width="128"
   height="128"
   viewBox="0 0 33.866663 33.866663"
   version="1.1"
   id="svg1"
   xml:space="preserve"
   inkscape:version="1.3.2 (091e20e, 2023-11-25)"
   sodipodi:docname="attack_cooldown.svg"
   inkscape:export-filename="attack_cooldown.png"
   inkscape:export-xdpi="96"
   inkscape:export-ydpi="96"
   xmlns:inkscape="http://www.inkscape.org/namespaces/inkscape"
   xmlns:sodipodi="http://sodipodi.sourceforge.net/DTD/sodipodi-0.dtd"
   xmlns:xlink="http://www.w3.org/1999/xlink"
   xmlns="http://www.w3.org/2000/svg"
   xmlns:svg="http://www.w3.org/2000/svg"><sodipodi:namedview
     id="namedview1"
     pagecolor="#ffffff"
     bordercolor="#000000"
     borderopacity="0.25"
     inkscape:showpageshadow="2"
     inkscape:pageopacity="0.0"
     inkscape:pagecheckerboard="0"
     inkscape:deskcolor="#d1d1d1"
     inkscape:document-units="px"
     inkscape:zoom="4.7952998"
     inkscape:cx="74.656438"
     inkscape:cy="77.575963"
     inkscape:window-width="1472"
     inkscape:window-height="891"
     inkscape:window-x="0"
     inkscape:window-y="37"
     inkscape:window-maximized="1"
     inkscape:current-layer="layer1" /><defs
     id="defs1"><linearGradient
       id="linearGradient12"
       inkscape:collect="always"><stop
         style="stop-color:#801393;stop-opacity:1;"
         offset="0"
         id="stop12" /><stop
         style="stop-color:#ce66d8;stop-opacity:1;"
         offset="1"
         id="stop13" /></linearGradient><linearGradient
       inkscape:collect="always"
       xlink:href="#linearGradient12"
       id="linearGradient13"
       x1="28.746275"
       y1="32.14246"
       x2="28.746275"
       y2="22.802954"
       gradientUnits="userSpaceOnUse" /></defs><g
     inkscape:label="Layer 1"
     inkscape:groupmode="layer"
     id="layer1"><path
       style="fill:#a30d0d;fill-opacity:1;stroke:#b62626;stroke-width:0.861603;stroke-linecap:round;stroke-dasharray:4.30802, 1.7232;stroke-dashoffset:0;stroke-opacity:1;paint-order:markers stroke fill"
       d="m 22.290921,13.806191 v 6.313681"
       id="path19" /><path
       style="fill:#a30d0d;fill-opacity:1;stroke:#b62626;stroke-width:1.0644;stroke-linecap:round;stroke-dasharray:5.322, 2.1288;stroke-dashoffset:0;stroke-opacity:1;paint-order:markers stroke fill"
       d="M 27.091194,9.9692569 V 19.604836"
       id="path18" /><g
       style="fill:#000000"
       id="g17"
       transform="matrix(0.06453036,0,0,0.06453036,0.39177659,0.44696104)"><g
         id="SVGRepo_bgCarrier"
         stroke-width="0" /><g
         id="SVGRepo_tracerCarrier"
         stroke-linecap="round"
         stroke-linejoin="round" /><g
         id="SVGRepo_iconCarrier"> <path
   style="fill:#ed5564"
   d="m 181.552,371.275 c 0,-2.828 -1.125,-5.546 -3.125,-7.546 l -30.171,-30.172 c -4.164,-4.171 -10.922,-4.171 -15.086,0 l -95.959,95.968 c -4.164,4.156 -4.164,10.906 0,15.078 l 30.171,30.171 c 4.164,4.155 10.921,4.155 15.085,0 l 95.959,-95.968 c 2.001,-1.999 3.126,-4.703 3.126,-7.531 z"
   id="path1" /> <path
   style="fill:#ccd1d9"
   d="m 490.804,96.617 c 1.406,-1.414 2.391,-3.203 2.844,-5.148 l 18.078,-78.405 c 0.812,-3.586 -0.266,-7.336 -2.859,-9.938 -2.593,-2.602 -6.359,-3.68 -9.938,-2.852 l -78.404,18.062 c -1.953,0.453 -3.734,1.438 -5.141,2.852 L 140.717,295.84 c -4.164,4.172 -4.164,10.922 0,15.094 l 60.335,60.342 c 2,2 4.719,3.125 7.546,3.125 2.828,0 5.539,-1.125 7.539,-3.125 z"
   id="path2-9" /> <path
   style="opacity:0.2;fill:#ffffff;enable-background:new"
   d="m 508.866,3.126 c -2.594,-2.602 -6.359,-3.68 -9.938,-2.852 l -78.404,18.062 c -1.953,0.453 -3.734,1.438 -5.141,2.852 L 140.717,295.84 c -4.164,4.172 -4.164,10.922 0,15.094 l 60.335,60.342 c 2,2 4.719,3.125 7.546,3.125 2.828,0 5.539,-1.125 7.539,-3.125 L 490.804,96.617 c 1.406,-1.414 2.391,-3.203 2.844,-5.148 l 18.078,-78.405 c 0.812,-3.587 -0.266,-7.337 -2.86,-9.938 z M 501.319,10.665 483.257,89.07 208.598,363.729 148.256,303.386 422.915,28.735 Z"
   id="path3" /> <path
   style="fill:#aab2bc"
   d="m 170.88,341.104 c -4.164,-4.172 -4.164,-10.921 0,-15.093 L 364.118,132.787 c 4.172,-4.164 10.922,-4.164 15.078,0 4.172,4.164 4.172,10.922 0,15.086 l -193.23,193.23 c -4.164,4.158 -10.914,4.158 -15.086,10e-4 z"
   id="path4" /> <g
   id="g6"> <path
   style="fill:#da4453"
   d="m 77.249,389.478 h 90.506 l 10.672,-10.672 c 2,-2 3.125,-4.703 3.125,-7.531 0,-1.078 -0.164,-2.125 -0.469,-3.125 H 98.584 Z"
   id="path5" /> <path
   style="fill:#da4453"
   d="M 143.842,413.4 H 53.328 l -16.117,16.125 c -1.484,1.484 -2.43,3.297 -2.859,5.203 h 88.155 z"
   id="path6-3" /> </g> <g
   id="g8"> <path
   style="fill:#ffce54"
   d="M 253.848,393.9 118.084,258.138 c -4.164,-4.164 -10.914,-4.164 -15.078,0 l -22.632,22.624 c -4.164,4.172 -4.164,10.922 0,15.078 l 135.763,135.764 c 2,2 4.711,3.125 7.539,3.125 2.836,0 5.547,-1.125 7.547,-3.125 l 22.625,-22.625 c 4.163,-4.157 4.163,-10.922 0,-15.079 z"
   id="path7" /> <path
   style="fill:#ffce54"
   d="m 85.327,469.321 c 0,-11.391 -4.438,-22.108 -12.492,-30.171 -16.64,-16.641 -43.702,-16.641 -60.342,0 -8.055,8.062 -12.492,18.78 -12.492,30.171 0,11.39 4.438,22.108 12.492,30.171 v 0 0 c 8.062,8.062 18.773,12.5 30.171,12.5 11.398,0 22.109,-4.438 30.171,-12.5 8.055,-8.062 12.492,-18.781 12.492,-30.171 z"
   id="path8" /> </g> <ellipse
   style="fill:#f6bb42"
   cx="42.664001"
   cy="469.31601"
   rx="10.664"
   ry="10.671"
   id="ellipse8" /> </g></g><g
       id="g1"
       transform="matrix(2.0094318,0,0,2.0094318,-31.949305,-31.627207)"><path
         id="path2"
         style="display:inline;fill:url(#linearGradient13);fill-opacity:1;stroke:none;stroke-width:0.609071;stroke-opacity:0.731915;paint-order:markers stroke fill"
         d="m 25.763002,22.914479 c -0.787083,0.01871 -1.463868,0.6095 -1.567346,1.414384 -0.04926,0.383134 0.03919,0.75228 0.227377,1.057299 0.648366,-0.897138 1.603623,-1.543795 2.690791,-1.805574 -0.253318,-0.347284 -0.643323,-0.593533 -1.103292,-0.652673 -0.08326,-0.0107 -0.166107,-0.01537 -0.24753,-0.01344 z m 5.256807,0.115121 c -0.05477,0.0015 -0.110372,0.0058 -0.165882,0.01292 -0.459968,0.05914 -0.849974,0.305906 -1.103291,0.65319 1.087168,0.261778 2.042425,0.908436 2.690791,1.805574 0.188183,-0.30502 0.276632,-0.674165 0.227376,-1.0573 -0.107045,-0.832638 -0.827492,-1.436279 -1.648994,-1.414384 z m -2.674772,0.858345 c -2.357446,-8.1e-5 -4.268554,1.911027 -4.268473,4.268473 -8.1e-5,2.357446 1.911027,4.268554 4.268473,4.268473 2.357244,-2.05e-4 4.268037,-1.911229 4.267956,-4.268473 8.1e-5,-2.357244 -1.910712,-4.268268 -4.267956,-4.268473 z"
         sodipodi:nodetypes="ssccssssccssccccc" /><path
         d="m 28.265753,24.621552 h 0.276986 c 0.306251,0 0.554488,0.248235 0.554488,0.554488 v 2.079459 h 2.079459 c 0.306258,0 0.555005,0.248199 0.555005,0.554488 v 0.277502 c 0,0.30629 -0.248747,0.554489 -0.555005,0.554489 h -2.495454 c -0.277289,-0.04623 -0.554458,-0.09251 -0.716236,-0.254249 -0.161748,-0.161739 -0.208048,-0.438946 -0.254248,-0.716235 V 25.17604 c 0,-0.306253 0.248715,-0.554488 0.555005,-0.554488 z"
         style="display:inline;fill:#000000;fill-opacity:1;stroke-width:0.0700492;stroke-linejoin:round"
         id="path6" /></g></g></svg>
