<?xml version="1.0" encoding="UTF-8" standalone="no"?>
<!-- Created with Inkscape (http://www.inkscape.org/) -->

<svg
   width="128"
   height="128"
   viewBox="0 0 33.866663 33.866663"
   version="1.1"
   id="svg1"
   xml:space="preserve"
   inkscape:version="1.3.2 (091e20e, 2023-11-25)"
   sodipodi:docname="movement_cooldown.svg"
   inkscape:export-filename="movement_cooldown.png"
   inkscape:export-xdpi="96"
   inkscape:export-ydpi="96"
   xmlns:inkscape="http://www.inkscape.org/namespaces/inkscape"
   xmlns:sodipodi="http://sodipodi.sourceforge.net/DTD/sodipodi-0.dtd"
   xmlns:xlink="http://www.w3.org/1999/xlink"
   xmlns="http://www.w3.org/2000/svg"
   xmlns:svg="http://www.w3.org/2000/svg"><sodipodi:namedview
     id="namedview1"
     pagecolor="#ffffff"
     bordercolor="#000000"
     borderopacity="0.25"
     inkscape:showpageshadow="2"
     inkscape:pageopacity="0.0"
     inkscape:pagecheckerboard="0"
     inkscape:deskcolor="#d1d1d1"
     inkscape:document-units="px"
     inkscape:zoom="4.7952998"
     inkscape:cx="69.860074"
     inkscape:cy="80.495489"
     inkscape:window-width="1472"
     inkscape:window-height="891"
     inkscape:window-x="0"
     inkscape:window-y="37"
     inkscape:window-maximized="1"
     inkscape:current-layer="g1" /><defs
     id="defs1"><linearGradient
       id="linearGradient12"
       inkscape:collect="always"><stop
         style="stop-color:#801393;stop-opacity:1;"
         offset="0"
         id="stop12" /><stop
         style="stop-color:#ce66d8;stop-opacity:1;"
         offset="1"
         id="stop13" /></linearGradient><linearGradient
       inkscape:collect="always"
       xlink:href="#linearGradient9"
       id="linearGradient10"
       x1="16.409855"
       y1="30.269945"
       x2="16.409855"
       y2="1.3451062"
       gradientUnits="userSpaceOnUse"
       gradientTransform="matrix(0.97993816,0,0,0.97993816,1.5504874,1.3821267)" /><linearGradient
       id="linearGradient9"
       inkscape:collect="always"><stop
         style="stop-color:#803821;stop-opacity:1;"
         offset="0"
         id="stop9" /><stop
         style="stop-color:#d99d8b;stop-opacity:1;"
         offset="1"
         id="stop10" /></linearGradient><linearGradient
       inkscape:collect="always"
       xlink:href="#linearGradient12"
       id="linearGradient13"
       x1="28.746275"
       y1="32.14246"
       x2="28.746275"
       y2="22.802954"
       gradientUnits="userSpaceOnUse"
       gradientTransform="matrix(1.9984379,0,0,2.0864345,-31.706232,-34.053755)" /></defs><g
     inkscape:label="Layer 1"
     inkscape:groupmode="layer"
     id="layer1"><path
       d="m 28.231264,21.879492 -6.085415,-1.630617 c 0.199907,-2.175462 0,-4.649806 -1.180826,-6.96736 C 20.788634,7.2107989 22.794568,1.5594955 27.6629,2.8637932 33.021202,4.3003825 32.430299,16.484933 28.231264,21.878513 v 0 z M 27.83047,24.445951 C 27.494351,36.17875 15.569484,30.812609 21.63922,22.786915 Z M 6.5070146,21.880472 12.592431,20.249855 c -0.199907,-2.175462 0,-4.649806 1.180826,-6.96736 C 13.949646,7.2117788 11.943712,1.5604754 7.0753786,2.8647731 1.7170769,4.3003825 2.3079796,16.484933 6.5070146,21.879492 v 0 z m 0.401775,2.566458 c 0.336118,11.73378 12.2609864,6.366659 6.1912494,-1.659035 z"
       id="path1"
       style="display:inline;fill:url(#linearGradient10);fill-opacity:1;stroke:#000000;stroke-width:0.23839;stroke-dasharray:none;stroke-opacity:1" /><g
       id="g1"><path
         id="path2"
         style="display:inline;fill:url(#linearGradient13);fill-opacity:1;stroke:none;stroke-width:1.2437;stroke-opacity:0.731915;paint-order:markers stroke fill"
         d="m 19.779529,13.755804 c -1.572935,0.03904 -2.925448,1.271682 -3.132243,2.951019 -0.09844,0.799385 0.07832,1.569583 0.454399,2.205986 1.295719,-1.871819 3.204741,-3.221027 5.377379,-3.767213 -0.506241,-0.724585 -1.285642,-1.238367 -2.204861,-1.361759 -0.16639,-0.02232 -0.331954,-0.03207 -0.494674,-0.02804 z m 10.505404,0.240192 c -0.109454,0.0031 -0.220572,0.0121 -0.331505,0.02696 -0.919218,0.123392 -1.698621,0.638253 -2.204859,1.362838 2.172638,0.546183 4.08166,1.895392 5.377379,3.767212 0.376073,-0.636403 0.552832,-1.4066 0.454397,-2.205986 -0.213923,-1.737246 -1.653692,-2.996703 -3.295412,-2.95102 z m -5.345366,1.79088 c -4.71121,-1.68e-4 -8.53044,3.987233 -8.530279,8.90589 -1.61e-4,4.918657 3.819069,8.906059 8.530279,8.90589 4.710806,-4.28e-4 8.529407,-3.987654 8.529246,-8.90589 1.61e-4,-4.918235 -3.81844,-8.905462 -8.529246,-8.90589 z"
         sodipodi:nodetypes="ssccssssccssccccc" /><path
         d="m 24.781122,17.317499 h 0.55354 c 0.612024,0 1.10811,0.517927 1.10811,1.156904 v 4.338656 h 4.15567 c 0.612037,0 1.109143,0.51785 1.109143,1.156902 v 0.57899 c 0,0.639054 -0.497106,1.156905 -1.109143,1.156905 h -4.98701 C 25.057286,25.609406 24.503381,25.512839 24.180079,25.175382 23.856835,24.837924 23.764307,24.25955 23.67198,23.681004 v -5.206601 c 0,-0.638977 0.497041,-1.156904 1.109142,-1.156904 z"
         style="display:inline;fill:#000000;fill-opacity:1;stroke-width:0.143037;stroke-linejoin:round"
         id="path6" /></g></g></svg>
