<?xml version="1.0" encoding="UTF-8" standalone="no"?>
<!-- Created with Inkscape (http://www.inkscape.org/) -->

<svg
   width="256"
   height="256"
   viewBox="0 0 67.733332 67.733333"
   version="1.1"
   id="svg1"
   inkscape:version="1.3.2 (091e20e, 2023-11-25)"
   sodipodi:docname="arrow.svg"
   xmlns:inkscape="http://www.inkscape.org/namespaces/inkscape"
   xmlns:sodipodi="http://sodipodi.sourceforge.net/DTD/sodipodi-0.dtd"
   xmlns="http://www.w3.org/2000/svg"
   xmlns:svg="http://www.w3.org/2000/svg">
  <sodipodi:namedview
     id="namedview1"
     pagecolor="#505050"
     bordercolor="#eeeeee"
     borderopacity="1"
     inkscape:showpageshadow="0"
     inkscape:pageopacity="0"
     inkscape:pagecheckerboard="0"
     inkscape:deskcolor="#d1d1d1"
     inkscape:document-units="px"
     showguides="true"
     inkscape:zoom="0.84096521"
     inkscape:cx="-149.82784"
     inkscape:cy="70.752035"
     inkscape:window-width="1920"
     inkscape:window-height="1011"
     inkscape:window-x="1920"
     inkscape:window-y="32"
     inkscape:window-maximized="1"
     inkscape:current-layer="layer1" />
  <defs
     id="defs1" />
  <g
     inkscape:label="Layer 1"
     inkscape:groupmode="layer"
     id="layer1">
    <rect
       style="opacity:1;fill:#8f4812;fill-opacity:1;stroke:#000000;stroke-width:0.100004;stroke-linecap:round;stroke-linejoin:round;stroke-miterlimit:3.5;stroke-dasharray:none;stroke-opacity:1;paint-order:fill markers stroke"
       id="rect1"
       width="2.7031379"
       height="68.022873"
       x="46.207188"
       y="-35.923485"
       ry="0"
       transform="matrix(0.68042031,0.73282208,-0.7243473,0.68943527,0,0)" />
    <rect
       style="opacity:1;fill:#000000;fill-opacity:0.245314;stroke-width:0.166694;stroke-linecap:round;stroke-linejoin:round;stroke-miterlimit:3.5;paint-order:fill markers stroke"
       id="rect2"
       width="0.71089184"
       height="68.022873"
       x="48.199432"
       y="-35.923485"
       ry="0"
       transform="matrix(0.68042031,0.73282208,-0.7243473,0.68943527,0,0)" />
    <rect
       style="opacity:1;fill:#ffffff;fill-opacity:0.166206;stroke-width:0.166694;stroke-linecap:round;stroke-linejoin:round;stroke-miterlimit:3.5;paint-order:fill markers stroke"
       id="rect3"
       width="0.5204035"
       height="68.000626"
       x="46.236103"
       y="-35.909298"
       ry="0"
       transform="matrix(0.68042031,0.73282208,-0.7243473,0.68943527,0,0)" />
    <path
       style="fill:#81aaec;fill-opacity:1;stroke:#000000;stroke-width:0.0529168;stroke-linecap:butt;stroke-linejoin:miter;stroke-dasharray:none;stroke-opacity:1"
       d="m 64.992076,3.3840847 c 0,0 -12.182954,2.8031196 -14.018554,5.982106 -1.835603,3.1789853 -0.802534,5.0660183 0.750359,6.6478063 1.801978,1.835498 4.412288,2.80777 7.613008,0.927498 3.200718,-1.880276 5.655187,-13.5574103 5.655187,-13.5574103 z"
       id="path14"
       sodipodi:nodetypes="czazc" />
    <path
       d="m 64.9149,3.4287312 c -0.698315,2.9417392 -2.78215,10.8518628 -5.383651,12.3801228 -2.923584,1.71747 -5.352286,1.052898 -7.124629,-0.473356 l -0.697115,0.663525 c 0.0049,0.0049 0.0096,0.01007 0.01447,0.01499 1.801974,1.835492 4.412257,2.806831 7.612972,0.926559 3.200712,-1.880268 5.655469,-13.5562785 5.655469,-13.5562785 0,0 -0.03851,0.00888 -0.04082,0.0093 z"
       style="fill:#040c18;fill-opacity:0.32500854;stroke-width:0.0529168"
       id="path32" />
    <path
       d="M 64.951836,3.3936539 51.709552,15.998899 c 0.0049,0.0049 0.0093,0.01038 0.0142,0.0153 1.801976,1.835493 4.412467,2.806723 7.613185,0.926449 3.200715,-1.88027 5.655248,-13.5565902 5.655248,-13.5565902 0,0 -0.03807,0.00914 -0.04039,0.00956 z"
       style="fill:#0f2d5e;fill-opacity:0.52345049;stroke:none;stroke-width:0.0529168;opacity:1"
       id="path21" />
    <path
       d="M 51.92682,16.208429 64.883433,3.875108 c 0.06924,-0.3055626 0.108752,-0.491071 0.108752,-0.491071 0,0 -0.20034,0.047025 -0.403355,0.096191 L 51.583933,15.859507 c 0.04809,0.05075 0.09054,0.104666 0.139868,0.154632 0.06574,0.06699 0.135098,0.129721 0.203092,0.194252 z"
       style="opacity:0.65648955;fill:#ffffff;fill-opacity:1;stroke:none;stroke-width:0.0529168"
       id="path23" />
    <path
       d="m 64.992173,3.384037 c 0,0 -12.183317,2.8037225 -14.018916,5.9827086 -1.529405,2.6486944 -1.064532,4.3991964 0.03037,5.8248524 C 50.20599,13.866196 50.01873,12.238311 51.354723,9.9245744 52.959299,7.1456824 62.467742,4.6545949 64.836422,4.0714267 64.930335,3.662813 64.992185,3.384037 64.992185,3.384037 Z"
       style="opacity:0.65895031;fill:#ffffff;stroke-width:0.0529168"
       id="path26" />
    <path
       d="m 10.980126,55.063254 -5.484217,-1.15001 -1.1250929,1.070652 4.0370992,1.070925 -0.1615254,0.623549 -4.4236355,-1.172938 -1.3071701,1.24392 4.0370989,1.070923 -0.1624306,0.624413 -4.423634,-1.172943 -1.28543232,1.223238 4.89903892,1.965984 1.513464,4.939001 1.3280021,-1.263749 -0.8664591,-4.437079 0.6256901,-0.125561 0.7870113,4.042834 1.3098914,-1.246505 -0.8664646,-4.43708 0.6247856,-0.124709 0.787011,4.042832 1.085233,-1.032724 z"
       style="fill:#da2020;fill-opacity:1;stroke:#000000;stroke-width:0.105833;stroke-dasharray:none;stroke-opacity:1"
       id="path13" />
    <path
       d="m 10.980261,55.063094 -5.4001882,5.398121 1.5136026,4.938716 1.3280843,-1.264005 -0.8666137,-4.436939 0.6258016,-0.125574 0.787032,4.043164 1.3099994,-1.246952 -0.8666156,-4.436938 0.6247696,-0.12454 0.787032,4.042647 1.085205,-1.032495 z"
       style="fill:#490b0b;fill-opacity:0.410646;stroke-width:0.264583px"
       id="path29" />
  </g>
</svg>
