<?xml version="1.0" encoding="UTF-8" standalone="no"?>
<!-- Created with Inkscape (http://www.inkscape.org/) -->

<svg
   width="128"
   height="128"
   viewBox="0 0 33.866666 33.866666"
   version="1.1"
   id="svg1"
   inkscape:version="1.3.2 (091e20e, 2023-11-25)"
   sodipodi:docname="sample.svg"
   xmlns:inkscape="http://www.inkscape.org/namespaces/inkscape"
   xmlns:sodipodi="http://sodipodi.sourceforge.net/DTD/sodipodi-0.dtd"
   xmlns="http://www.w3.org/2000/svg"
   xmlns:svg="http://www.w3.org/2000/svg">
  <sodipodi:namedview
     id="namedview1"
     pagecolor="#ffffff"
     bordercolor="#000000"
     borderopacity="0.25"
     inkscape:showpageshadow="2"
     inkscape:pageopacity="0.0"
     inkscape:pagecheckerboard="0"
     inkscape:deskcolor="#d1d1d1"
     inkscape:document-units="mm"
     inkscape:zoom="1.9813581"
     inkscape:cx="35.329303"
     inkscape:cy="16.655243"
     inkscape:window-width="1392"
     inkscape:window-height="891"
     inkscape:window-x="0"
     inkscape:window-y="37"
     inkscape:window-maximized="0"
     inkscape:current-layer="layer1" />
  <defs
     id="defs1" />
  <g
     inkscape:label="Layer 1"
     inkscape:groupmode="layer"
     id="layer1">
    <rect
       style="fill:#4ff0f4;stroke:#000000;stroke-width:0.308;stroke-opacity:1;paint-order:markers stroke fill;stroke-dasharray:none;fill-opacity:1"
       id="rect1"
       width="33.758518"
       height="33.758518"
       x="0.054074999"
       y="0.054074999"
       ry="0" />
    <path
       sodipodi:type="star"
       style="fill:#f4cb4f;stroke:#000000;stroke-width:0.307999;stroke-dasharray:none;stroke-opacity:1;paint-order:markers stroke fill;fill-opacity:1"
       id="path1"
       inkscape:flatsided="true"
       sodipodi:sides="6"
       sodipodi:cx="0.20030452"
       sodipodi:cy="12.285344"
       sodipodi:r1="14.872526"
       sodipodi:r2="12.879986"
       sodipodi:arg1="0.52359878"
       sodipodi:arg2="1.0471976"
       inkscape:rounded="0"
       inkscape:randomized="0"
       d="M 13.08029,19.721607 0.20030446,27.15787 -12.679681,19.721607 l 0,-14.872526 L 0.20030459,-2.587182 13.08029,4.8490811 Z"
       transform="matrix(1.299168,0,0,0.86210931,16.616541,10.104273)" />
    <path
       style="fill:#43740a;fill-opacity:1;stroke:#000000;stroke-width:0.324493;stroke-dasharray:none;stroke-opacity:1;paint-order:markers stroke fill"
       d="M 0.9388268,16.952061 C 2.3414428,15.782455 3.162067,14.15739 3.7580349,12.55005 3.9348885,12.073072 4.2407408,11.447423 4.3515526,10.94932 4.6314659,9.6910977 4.0765601,11.233885 4.4999319,10.282348 4.7211978,9.7850486 4.9796541,9.2864057 5.2418289,8.8150113 c 0.044238,-0.079541 -0.044238,-0.1872474 0,-0.2667883 C 5.3650212,8.3267213 5.836577,7.8349432 5.9837256,7.6144633 6.1746603,7.3283768 6.4329903,6.1452716 6.7256226,6.0137324 7.1680045,5.8148799 7.3143371,6.728448 7.6158989,7.0808862 7.8612399,7.4733106 8.3486868,7.6709243 8.6545545,8.0146461 9.1215231,8.5394067 9.2389619,9.138942 9.69321,9.6153769 c 0.2153221,0.2258389 1.045098,0.8177411 1.187035,1.2005481 0.210608,0.568016 0.06524,1.136187 0.148379,1.734125 0.141059,1.014501 0.300254,2.141638 0.741897,3.068068 0.102649,0.215332 0.160403,0.672376 0.445138,0.800365 0.259936,0.116843 0.923545,-0.340962 1.187036,-0.400182 0.09597,-0.02157 0.204914,0.03302 0.296759,0 0.616582,-0.221725 1.272595,-0.897729 1.483793,-1.467337 0.102626,-0.276783 -0.02572,-0.789663 0,-1.067154 0.03311,-0.357248 0.121855,-0.709462 0.14838,-1.067153 0.0513,-0.69187 -0.109404,-1.445817 0,-2.134309 0.08434,-0.5307123 0.370206,-1.0618208 0.445138,-1.6007308 0.0303,-0.2179731 -0.120539,-0.8504232 0,-1.0671539 0.167804,-0.3017162 0.564939,-1.0953143 0.741896,-1.3339426 0.02743,-0.036997 0.126261,0.039771 0.14838,0 0.04424,-0.07954 -0.02399,-0.1805141 0,-0.2667883 0.02682,-0.096458 0.113406,-0.1724646 0.148379,-0.2667886 0.03692,-0.099589 -0.06369,-0.3142987 0,-0.4001828 0.0776,-0.1046431 0.224784,-0.1589455 0.296759,-0.2667886 0.106371,-0.1593792 0.64053,-1.3339424 0.741896,-1.3339424 0.04946,0 -0.02212,0.093624 0,0.1333942 0.07975,0.1433946 0.187275,0.273634 0.29676,0.4001827 0.237161,0.274127 0.485257,0.5408048 0.741897,0.8003655 0.288711,0.2919982 0.901481,0.6971927 1.038655,1.0671542 0.163217,0.4402008 -0.163217,1.0271356 0,1.4673367 0.02212,0.059655 0.12626,0.073739 0.14838,0.1333942 0.136412,0.3679062 0.07229,0.8243388 0.148379,1.2005483 0.164061,0.8112016 0.520558,1.6051532 0.741897,2.4010962 0.114144,0.410467 0.128537,1.565055 0.296759,1.86752 0.151573,0.27253 0.607331,1.600731 1.038655,1.600731 0.110593,0 0.189465,-0.10928 0.296759,-0.133394 0.09597,-0.02157 0.202916,0.02812 0.296758,0 1.029249,-0.308435 1.678913,-4.484213 2.077312,-5.4691649 0.267314,-0.6608718 0.602378,-1.545982 1.038656,-2.1343079 0.0776,-0.1046429 0.234197,-0.1543005 0.296759,-0.2667883 0.08594,-0.1545174 0.06513,-0.3838915 0.148379,-0.5335772 0.108204,-0.1945449 0.237367,-0.2133943 0.296759,-0.2667883 0.521565,-0.4688912 0.364497,-0.8793878 1.038655,-1.3339427 0.173945,-0.1172829 0.661251,0.7887574 0.741898,0.9337599 0.145575,0.2617483 0.391363,0.777093 0.445138,1.0671539 0.02439,0.1315794 -0.03599,0.2707713 0,0.4001827 0.04326,0.1555332 0.217007,0.2567882 0.296758,0.4001827 0.335168,0.6026343 0.178663,0.7263214 0.741898,1.3339424 0.263293,0.2840451 0.794421,0.9809812 1.038655,1.2005477 0.19784,0.17786 0.142378,-0.2829712 0.296759,0.133395 0.132764,0.358071 0.193697,0.829939 0.296759,1.200548 0.151492,0.544778 -0.129515,1.101076 0.148378,1.600731 0.0784,0.140961 -0.0784,0.125828 0,0.266789 0.365713,0.657556 1.038656,1.324004 1.038656,2.134307"
       id="path2" />
    <path
       style="fill:#43740a;fill-opacity:1;stroke:#000000;stroke-width:0.292034;stroke-dasharray:none;stroke-opacity:1;paint-order:markers stroke fill"
       d="M 0.79803754,24.443945 C 1.9317083,23.271893 2.5949815,21.64343 3.0766753,20.032728 3.219618,19.554753 3.4668245,18.927795 3.5563887,18.428651 c 0.2262412,-1.260855 -0.222264,0.28516 0.1199282,-0.668367 0.1788392,-0.49834 0.3877377,-0.998026 0.5996416,-1.470406 0.035756,-0.07971 -0.035755,-0.187638 0,-0.267346 0.099571,-0.221965 0.4807079,-0.714771 0.5996414,-0.935712 0.1543239,-0.286685 0.3631203,-1.472265 0.5996416,-1.604079 0.3575572,-0.199268 0.4758312,0.716211 0.7195699,1.069386 0.198298,0.393244 0.5922792,0.591272 0.8394981,0.935712 0.3774295,0.525858 0.47235,1.126648 0.8394981,1.604079 0.174035,0.226311 0.8447055,0.819451 0.9594267,1.203059 0.1702249,0.569204 0.052731,1.138563 0.119928,1.737751 0.1140116,1.016623 0.2426817,2.146117 0.5996417,3.074484 0.082966,0.215783 0.1296464,0.673783 0.3597848,0.802039 0.2100942,0.117088 0.7464592,-0.341675 0.9594272,-0.401019 0.07757,-0.02162 0.165623,0.03309 0.239857,0 0.498355,-0.222188 1.028581,-0.899606 1.199282,-1.470405 0.08295,-0.277362 -0.02079,-0.791315 0,-1.069386 0.02676,-0.357995 0.09849,-0.710946 0.119929,-1.069385 0.04146,-0.693317 -0.08843,-1.44884 0,-2.138772 0.06817,-0.531823 0.299221,-1.064042 0.359785,-1.604079 0.02449,-0.218429 -0.09743,-0.852201 0,-1.069385 0.135628,-0.302347 0.456614,-1.097605 0.599641,-1.336733 0.02217,-0.03708 0.102051,0.03985 0.119929,0 0.03576,-0.07971 -0.01939,-0.180892 0,-0.267346 0.02168,-0.09666 0.09166,-0.172825 0.119928,-0.267346 0.02984,-0.0998 -0.05148,-0.314956 0,-0.40102 0.06272,-0.104862 0.181682,-0.159278 0.239856,-0.267347 0.08598,-0.159712 0.517712,-1.336731 0.599641,-1.336731 0.03998,0 -0.01788,0.09381 0,0.133673 0.06446,0.143694 0.151366,0.274206 0.239858,0.401019 0.191686,0.274701 0.392211,0.541935 0.599641,0.802039 0.233352,0.292609 0.728627,0.698651 0.839498,1.069386 0.131921,0.441122 -0.131921,1.029284 0,1.470406 0.01788,0.05977 0.10205,0.07389 0.119929,0.133673 0.110255,0.368675 0.05843,0.826062 0.119928,1.203059 0.132603,0.812898 0.420743,1.60851 0.599642,2.406118 0.09226,0.411325 0.10389,1.568328 0.239856,1.871425 0.12251,0.2731 0.490878,1.604079 0.839498,1.604079 0.08939,0 0.153136,-0.109509 0.239857,-0.133673 0.07757,-0.02162 0.164008,0.02818 0.239856,0 0.831895,-0.30908 1.356989,-4.493591 1.678997,-5.480603 0.216057,-0.662254 0.486874,-1.549215 0.839498,-2.138771 0.06272,-0.104862 0.189291,-0.154624 0.239857,-0.267346 0.06946,-0.154841 0.05264,-0.384695 0.119928,-0.534694 0.08746,-0.194951 0.191853,-0.21384 0.239857,-0.267346 0.421557,-0.469872 0.294606,-0.881227 0.839497,-1.336733 0.140592,-0.117527 0.534459,0.790408 0.599643,0.935713 0.117661,0.262297 0.316321,0.778718 0.359785,1.069386 0.01971,0.131855 -0.02909,0.271338 0,0.40102 0.03496,0.155858 0.175396,0.257325 0.239856,0.40102 0.270901,0.603894 0.144405,0.72784 0.599642,1.336731 0.212808,0.284639 0.642094,0.983033 0.839498,1.203059 0.159905,0.178232 0.115077,-0.283563 0.239856,0.133674 0.107308,0.35882 0.156557,0.831675 0.239857,1.203059 0.122444,0.545917 -0.104681,1.103378 0.119927,1.604078 0.06337,0.141256 -0.06337,0.126091 0,0.267347 0.29559,0.658931 0.839499,1.326773 0.839499,2.138771"
       id="path3" />
    <path
       style="fill:#43740a;fill-opacity:1;stroke:#000000;stroke-width:0.292034;stroke-dasharray:none;stroke-opacity:1;paint-order:markers stroke fill"
       d="m 7.4748552,26.981136 c 1.1336707,-1.172052 1.7969439,-2.800515 2.2786377,-4.411217 0.1429427,-0.477975 0.3901491,-1.104933 0.4797131,-1.604077 0.226242,-1.260855 -0.222264,0.28516 0.119929,-0.668367 0.178839,-0.49834 0.387737,-0.998026 0.599641,-1.470406 0.03576,-0.07971 -0.03575,-0.187638 0,-0.267346 0.09957,-0.221965 0.480708,-0.714771 0.599642,-0.935712 0.154323,-0.286685 0.36312,-1.472265 0.599641,-1.604079 0.357557,-0.199268 0.475831,0.716211 0.71957,1.069386 0.198298,0.393244 0.592279,0.591272 0.839498,0.935712 0.37743,0.525858 0.47235,1.126648 0.839498,1.604079 0.174035,0.226311 0.844706,0.819451 0.959427,1.203059 0.170225,0.569204 0.05273,1.138563 0.119928,1.737751 0.114012,1.016623 0.242682,2.146117 0.599642,3.074484 0.08297,0.215783 0.129646,0.673783 0.359784,0.802039 0.210095,0.117088 0.74646,-0.341675 0.959428,-0.401019 0.07757,-0.02162 0.165623,0.03309 0.239857,0 0.498355,-0.222188 1.074533,-0.887835 1.199282,-1.470405 0.130162,-0.607848 -0.02079,-0.791315 0,-1.069386 0.02676,-0.357995 0.09849,-0.710946 0.119929,-1.069385 0.04146,-0.693317 -0.08843,-1.44884 0,-2.138772 0.06817,-0.531823 0.299221,-1.064042 0.359785,-1.604079 0.02449,-0.218429 -0.09743,-0.852201 0,-1.069385 0.135628,-0.302347 0.456614,-1.097605 0.599641,-1.336733 0.02217,-0.03708 0.102051,0.03985 0.119929,0 0.03576,-0.07971 -0.01939,-0.180892 0,-0.267346 0.02168,-0.09666 0.09166,-0.172825 0.119928,-0.267346 0.02984,-0.0998 -0.05148,-0.314956 0,-0.40102 0.06272,-0.104862 0.181682,-0.159278 0.239856,-0.267347 0.08598,-0.159712 0.517712,-1.336731 0.599641,-1.336731 0.03998,0 -0.01788,0.09381 0,0.133673 0.06446,0.143694 0.151366,0.274206 0.239858,0.401019 0.191686,0.274701 0.392211,0.541935 0.599641,0.802039 0.233352,0.292609 0.728627,0.698651 0.839498,1.069386 0.131921,0.441122 -0.131921,1.029284 0,1.470406 0.01788,0.05977 0.10205,0.07389 0.119929,0.133673 0.110255,0.368675 0.05843,0.826062 0.119928,1.203059 0.132603,0.812898 0.420743,1.60851 0.599642,2.406118 0.09226,0.411325 0.10389,1.568328 0.239856,1.871425 0.12251,0.2731 0.490878,1.604079 0.839498,1.604079 0.08939,0 0.153136,-0.109509 0.239857,-0.133673 0.07757,-0.02162 0.164008,0.02818 0.239856,0 0.831895,-0.30908 1.356989,-4.493591 1.678997,-5.480603 0.216057,-0.662254 0.486874,-1.549215 0.839498,-2.138771 0.06272,-0.104862 0.189291,-0.154624 0.239857,-0.267346 0.06946,-0.154841 0.05264,-0.384695 0.119928,-0.534694 0.08746,-0.194951 0.191853,-0.21384 0.239857,-0.267346 0.421557,-0.469872 0.294606,-0.881227 0.839497,-1.336733 0.140592,-0.117527 0.534459,0.790408 0.599643,0.935713 0.117661,0.262297 0.316321,0.778718 0.359785,1.069386 0.01971,0.131855 -0.02909,0.271338 0,0.40102 0.03496,0.155858 0.175396,0.257325 0.239856,0.40102 0.270901,0.603894 0.144405,0.72784 0.599642,1.336731 0.212808,0.284639 0.642094,0.983033 0.839498,1.203059 0.159905,0.178232 0.115077,-0.283563 0.239856,0.133674 0.107308,0.35882 0.156557,0.831675 0.239857,1.203059 0.122444,0.545917 -0.104681,1.103378 0.119927,1.604078 0.06337,0.141256 -0.06337,0.126091 0,0.267347 0.29559,0.658931 0.839499,1.326773 0.839499,2.138771"
       id="path4"
       sodipodi:nodetypes="csssscsscssssssscsscscccsscscscsssssssssssssssssssssssssscc" />
  </g>
</svg>
