<?xml version="1.0" encoding="UTF-8" standalone="no"?>
<!-- Created with Inkscape (http://www.inkscape.org/) -->

<svg
   width="500"
   height="600"
   viewBox="0 0 500 600.00002"
   version="1.1"
   id="svg1"
   sodipodi:docname="panel1.svg"
   inkscape:version="1.3.2 (091e20e, 2023-11-25)"
   xmlns:inkscape="http://www.inkscape.org/namespaces/inkscape"
   xmlns:sodipodi="http://sodipodi.sourceforge.net/DTD/sodipodi-0.dtd"
   xmlns:xlink="http://www.w3.org/1999/xlink"
   xmlns="http://www.w3.org/2000/svg"
   xmlns:svg="http://www.w3.org/2000/svg">
  <sodipodi:namedview
     id="namedview1"
     pagecolor="#505050"
     bordercolor="#eeeeee"
     borderopacity="1"
     inkscape:showpageshadow="0"
     inkscape:pageopacity="0"
     inkscape:pagecheckerboard="0"
     inkscape:deskcolor="#d1d1d1"
     inkscape:document-units="px"
     inkscape:zoom="1.7919393"
     inkscape:cx="390.35921"
     inkscape:cy="262.5647"
     inkscape:window-width="1920"
     inkscape:window-height="1011"
     inkscape:window-x="1920"
     inkscape:window-y="32"
     inkscape:window-maximized="1"
     inkscape:current-layer="layer1" />
  <defs
     id="defs1">
    <inkscape:path-effect
       effect="fillet_chamfer"
       id="path-effect21"
       is_visible="true"
       lpeversion="1"
       nodesatellites_param="F,0,0,1,0,0,0,1 @ F,0,0,1,0,6.4791788,0,1 @ F,0,0,1,0,6.2904094,0,1 @ F,0,0,1,0,8.4775017,0,1 @ F,0,0,1,0,9.8602166,0,1 @ F,0,0,1,0,3.4987307,0,1 @ F,0,0,1,0,0,0,1"
       radius="0"
       unit="px"
       method="auto"
       mode="F"
       chamfer_steps="1"
       flexible="false"
       use_knot_distance="true"
       apply_no_radius="true"
       apply_with_radius="true"
       only_selected="false"
       hide_knots="false" />
    <inkscape:path-effect
       effect="fillet_chamfer"
       id="path-effect14"
       is_visible="true"
       lpeversion="1"
       nodesatellites_param="F,0,0,1,0,0,0,1 @ F,0,0,1,0,6.4791788,0,1 @ F,0,0,1,0,6.2904094,0,1 @ F,0,0,1,0,8.4775017,0,1 @ F,0,0,1,0,9.8602166,0,1 @ F,0,0,1,0,3.4987307,0,1 @ F,0,0,1,0,0,0,1"
       radius="0"
       unit="px"
       method="auto"
       mode="F"
       chamfer_steps="1"
       flexible="false"
       use_knot_distance="true"
       apply_no_radius="true"
       apply_with_radius="true"
       only_selected="false"
       hide_knots="false" />
    <inkscape:path-effect
       effect="fillet_chamfer"
       id="path-effect9"
       is_visible="true"
       lpeversion="1"
       nodesatellites_param="F,0,0,1,0,0,0,1 @ F,0,0,1,0,6.4791788,0,1 @ F,0,0,1,0,6.2904094,0,1 @ F,0,0,1,0,8.4775017,0,1 @ F,0,0,1,0,9.8602166,0,1 @ F,0,0,1,0,3.4987307,0,1 @ F,0,0,1,0,0,0,1"
       radius="0"
       unit="px"
       method="auto"
       mode="F"
       chamfer_steps="1"
       flexible="false"
       use_knot_distance="true"
       apply_no_radius="true"
       apply_with_radius="true"
       only_selected="false"
       hide_knots="false" />
    <inkscape:path-effect
       effect="fillet_chamfer"
       id="path-effect7"
       is_visible="true"
       lpeversion="1"
       nodesatellites_param="F,0,0,1,0,0,0,1 @ F,0,0,1,0,6.4791788,0,1 @ F,0,0,1,0,6.2904094,0,1 @ F,0,0,1,0,8.4775017,0,1 @ F,0,0,1,0,9.8602166,0,1 @ F,0,0,1,0,3.4987307,0,1 @ F,0,0,1,0,0,0,1"
       radius="0"
       unit="px"
       method="auto"
       mode="F"
       chamfer_steps="1"
       flexible="false"
       use_knot_distance="true"
       apply_no_radius="true"
       apply_with_radius="true"
       only_selected="false"
       hide_knots="false" />
    <linearGradient
       id="linearGradient4"
       inkscape:collect="always">
      <stop
         style="stop-color:#ffffff;stop-opacity:1;"
         offset="0"
         id="stop4" />
      <stop
         style="stop-color:#ffffff;stop-opacity:0.25605088;"
         offset="0.61343288"
         id="stop5" />
      <stop
         style="stop-color:#ffffff;stop-opacity:0;"
         offset="0.72201174"
         id="stop6" />
    </linearGradient>
    <linearGradient
       inkscape:collect="always"
       xlink:href="#linearGradient4"
       id="linearGradient5"
       x1="389.82623"
       y1="98.146416"
       x2="389.82623"
       y2="125.85079"
       gradientUnits="userSpaceOnUse"
       gradientTransform="matrix(0.92266876,0,0,0.92266876,30.214695,8.8038048)" />
    <filter
       inkscape:collect="always"
       style="color-interpolation-filters:sRGB"
       id="filter6"
       x="-0.0037030961"
       y="-0.0037029157"
       width="1.0074062"
       height="1.0074058">
      <feGaussianBlur
         inkscape:collect="always"
         stdDeviation="0.029069075"
         id="feGaussianBlur6" />
    </filter>
    <filter
       inkscape:collect="always"
       style="color-interpolation-filters:sRGB"
       id="filter9"
       x="-0.016498321"
       y="-0.014245849"
       width="1.0329966"
       height="1.0284917">
      <feGaussianBlur
         inkscape:collect="always"
         stdDeviation="2.1594032"
         id="feGaussianBlur9" />
    </filter>
    <filter
       inkscape:label="People"
       inkscape:menu="Overlays"
       inkscape:menu-tooltip="Colorized blotches, like a crowd of people"
       style="color-interpolation-filters:sRGB;"
       id="filter20"
       x="0"
       y="0"
       width="1"
       height="1">
      <feTurbulence
         result="result7"
         type="fractalNoise"
         numOctaves="3"
         baseFrequency="0.2 0.09"
         id="feTurbulence18" />
      <feColorMatrix
         result="result5"
         values="1 0 0 0 0 0 1 0 0 0 0 0 1 0 0 0 0 0 5.5 -2 "
         id="feColorMatrix18" />
      <feComposite
         result="result6"
         in="SourceGraphic"
         operator="in"
         in2="result7"
         id="feComposite18" />
      <feDisplacementMap
         in="result5"
         xChannelSelector="R"
         yChannelSelector="A"
         scale="9"
         result="result4"
         in2="result6"
         id="feDisplacementMap18" />
      <feComposite
         result="result2"
         operator="in"
         in2="result4"
         in="SourceGraphic"
         id="feComposite19" />
      <feComposite
         in="result2"
         operator="in"
         in2="SourceGraphic"
         result="result91"
         id="feComposite20" />
      <feBlend
         mode="multiply"
         in2="result91"
         id="feBlend20" />
    </filter>
    <filter
       inkscape:label="Torn Edges"
       inkscape:menu="Distort"
       inkscape:menu-tooltip="Displace the outside of shapes and pictures without altering their content"
       height="1.0420704"
       y="-0.021035214"
       width="1.0487224"
       x="-0.024361182"
       style="color-interpolation-filters:sRGB;"
       id="filter72">
      <feTurbulence
         baseFrequency="0.05"
         numOctaves="5"
         type="fractalNoise"
         result="result91"
         id="feTurbulence72" />
      <feDisplacementMap
         scale="25"
         result="result5"
         xChannelSelector="R"
         in="SourceGraphic"
         in2="result91"
         id="feDisplacementMap72" />
      <feComposite
         in="SourceGraphic"
         operator="atop"
         in2="result5"
         id="feComposite72" />
      <feGaussianBlur
         stdDeviation="3.1885434"
         id="feGaussianBlur72" />
    </filter>
  </defs>
  <g
     inkscape:label="Layer 1"
     inkscape:groupmode="layer"
     id="layer1">
    <path
       id="path7"
       style="fill:#040401;stroke-width:2.899;stroke-linecap:round;stroke-linejoin:round;stroke-miterlimit:3.5;paint-order:stroke fill markers;fill-opacity:1;stroke-dasharray:none;stroke:none;stroke-opacity:0.46710512;filter:url(#filter9)"
       d="m 390.71875,96.861328 c -7.14523,-1.72e-4 -13.25997,4.412012 -15.76816,10.660492 -1.32489,3.3006 -4.11704,6.32388 -7.69539,6.32388 l -267.390572,0 a 6.2904094,6.2904094 135 0 0 -6.290409,6.29041 v 332.04264 a 8.4775017,8.4775017 45 0 0 8.477501,8.4775 l 278.80681,0 a 9.8602166,9.8602166 135 0 0 9.86022,-9.86022 V 134.32881 c 0,-1.93229 1.58591,-3.46198 3.47441,-3.85474 7.71304,-1.60412 13.50821,-8.43957 13.50801,-16.62837 2.3e-4,-9.37954 -7.60288,-16.983521 -16.98242,-16.984372 z"
       inkscape:path-effect="#path-effect9"
       inkscape:original-d="M 390.71875 96.861328 A 16.983961 16.983961 0 0 0 373.73438 113.8457 L 93.574219 113.8457 L 93.574219 460.65625 L 390.71875 460.65625 L 390.71875 130.83008 A 16.983961 16.983961 0 0 0 407.70117 113.8457 A 16.983961 16.983961 0 0 0 390.71875 96.861328 z " />
    <path
       id="rect1"
       style="display:inline;fill:#dccd85;fill-opacity:1;stroke:none;stroke-width:2.899;stroke-linecap:round;stroke-linejoin:round;stroke-miterlimit:3.5;stroke-dasharray:none;stroke-opacity:0.467105;paint-order:stroke fill markers"
       d="m 390.71875,96.861328 c -7.14523,-1.72e-4 -13.25997,4.412012 -15.76816,10.660492 -1.32489,3.3006 -4.11704,6.32388 -7.69539,6.32388 l -267.390572,0 a 6.2904094,6.2904094 135 0 0 -6.290409,6.29041 v 332.04264 a 8.4775017,8.4775017 45 0 0 8.477501,8.4775 l 278.80681,0 a 9.8602166,9.8602166 135 0 0 9.86022,-9.86022 V 134.32881 c 0,-1.93229 1.58591,-3.46198 3.47441,-3.85474 7.71304,-1.60412 13.50821,-8.43957 13.50801,-16.62837 2.3e-4,-9.37954 -7.60288,-16.983521 -16.98242,-16.984372 z"
       inkscape:path-effect="#path-effect7"
       inkscape:original-d="M 390.71875,96.861328 A 16.983961,16.983961 0 0 0 373.73438,113.8457 H 93.574219 V 460.65625 H 390.71875 V 130.83008 A 16.983961,16.983961 0 0 0 407.70117,113.8457 16.983961,16.983961 0 0 0 390.71875,96.861328 Z" />
    <path
       id="path20"
       style="display:inline;opacity:0.07920439;mix-blend-mode:color-burn;fill:#000000;fill-opacity:1;stroke:none;stroke-width:2.899;stroke-linecap:round;stroke-linejoin:round;stroke-miterlimit:3.5;stroke-dasharray:none;stroke-opacity:0.467105;paint-order:stroke fill markers;filter:url(#filter72)"
       d="m 390.71875,96.861328 c -7.14523,-1.72e-4 -13.25997,4.412012 -15.76816,10.660492 -1.32489,3.3006 -4.11704,6.32388 -7.69539,6.32388 l -267.390572,0 a 6.2904094,6.2904094 135 0 0 -6.290409,6.29041 v 332.04264 a 8.4775017,8.4775017 45 0 0 8.477501,8.4775 l 278.80681,0 a 9.8602166,9.8602166 135 0 0 9.86022,-9.86022 V 134.32881 c 0,-1.93229 1.58591,-3.46198 3.47441,-3.85474 7.71304,-1.60412 13.50821,-8.43957 13.50801,-16.62837 2.3e-4,-9.37954 -7.60288,-16.983521 -16.98242,-16.984372 z"
       inkscape:path-effect="#path-effect21"
       inkscape:original-d="M 390.71875,96.861328 A 16.983961,16.983961 0 0 0 373.73438,113.8457 H 93.574219 V 460.65625 H 390.71875 V 130.83008 A 16.983961,16.983961 0 0 0 407.70117,113.8457 16.983961,16.983961 0 0 0 390.71875,96.861328 Z"
       transform="matrix(0.94342414,0,0,0.94342414,14.180044,15.771019)" />
    <path
       id="path13"
       style="display:inline;opacity:0.12220588;mix-blend-mode:darken;fill:#dccd85;fill-opacity:1;stroke:none;stroke-width:2.899;stroke-linecap:round;stroke-linejoin:round;stroke-miterlimit:3.5;stroke-dasharray:none;stroke-opacity:0.467105;paint-order:fill markers stroke;filter:url(#filter20)"
       d="m 390.71875,96.861328 c -7.14523,-1.72e-4 -13.25997,4.412012 -15.76816,10.660492 -1.32489,3.3006 -4.11704,6.32388 -7.69539,6.32388 l -267.390572,0 a 6.2904094,6.2904094 135 0 0 -6.290409,6.29041 v 332.04264 a 8.4775017,8.4775017 45 0 0 8.477501,8.4775 l 278.80681,0 a 9.8602166,9.8602166 135 0 0 9.86022,-9.86022 V 134.32881 c 0,-1.93229 1.58591,-3.46198 3.47441,-3.85474 7.71304,-1.60412 13.50821,-8.43957 13.50801,-16.62837 2.3e-4,-9.37954 -7.60288,-16.983521 -16.98242,-16.984372 z"
       inkscape:path-effect="#path-effect14"
       inkscape:original-d="M 390.71875,96.861328 A 16.983961,16.983961 0 0 0 373.73438,113.8457 H 93.574219 V 460.65625 H 390.71875 V 130.83008 A 16.983961,16.983961 0 0 0 407.70117,113.8457 16.983961,16.983961 0 0 0 390.71875,96.861328 Z" />
    <g
       id="g6"
       inkscape:label="g6">
      <circle
         style="display:inline;fill:#d70000;fill-opacity:1;stroke:#000000;stroke-width:1.303;stroke-linecap:round;stroke-linejoin:round;stroke-miterlimit:3.5;stroke-dasharray:none;stroke-opacity:0.529836;paint-order:markers fill stroke"
         id="circle1"
         cx="390.71783"
         cy="113.84538"
         r="14.522195" />
      <circle
         style="display:inline;opacity:0.408497;fill:url(#linearGradient5);stroke:none;stroke-width:0.603294;stroke-linecap:round;stroke-linejoin:round;stroke-miterlimit:3.5;stroke-dasharray:none;stroke-opacity:0.529836;paint-order:markers fill stroke"
         id="circle4"
         cx="390.71783"
         cy="113.84538"
         r="14.522195" />
      <path
         id="path2"
         style="color:#000000;display:inline;mix-blend-mode:normal;fill:#000000;fill-opacity:1;stroke-linecap:round;stroke-linejoin:round;-inkscape-stroke:none;filter:url(#filter6)"
         d="m 382.49805,104.44141 a 1.42401,1.42401 0 0 0 -0.78321,0.40039 1.42401,1.42401 0 0 0 0,2.01367 l 6.98828,6.98828 -6.98828,6.99023 a 1.42401,1.42401 0 0 0 0,2.01368 1.42401,1.42401 0 0 0 2.01368,0 l 6.99023,-6.98828 6.98828,6.98828 a 1.42401,1.42401 0 0 0 2.01367,0 1.42401,1.42401 0 0 0 0,-2.01368 l -6.99023,-6.99023 6.99023,-6.98828 a 1.42401,1.42401 0 0 0 0,-2.01367 1.42401,1.42401 0 0 0 -2.01367,0 l -6.98828,6.99023 -6.99023,-6.99023 a 1.42401,1.42401 0 0 0 -1.23047,-0.40039 z"
         transform="matrix(0.92266876,0,0,0.92266876,30.214695,8.8038048)" />
      <path
         id="path4"
         style="color:#000000;display:inline;fill:#701c0b;stroke-width:0.922669;stroke-linecap:round;stroke-linejoin:round;-inkscape-stroke:none"
         d="m 383.1337,105.16863 a 1.3138895,1.3138895 0 0 0 -0.72265,0.36943 1.3138895,1.3138895 0 0 0 0,1.85795 l 6.44787,6.44787 -6.44787,6.44966 a 1.3138895,1.3138895 0 0 0 0,1.85796 1.3138895,1.3138895 0 0 0 1.85796,0 l 6.44967,-6.44786 6.44787,6.44786 a 1.3138895,1.3138895 0 0 0 1.85795,0 1.3138895,1.3138895 0 0 0 0,-1.85796 l -6.44967,-6.44966 6.44967,-6.44787 a 1.3138895,1.3138895 0 0 0 0,-1.85795 1.3138895,1.3138895 0 0 0 -1.85795,0 l -6.44787,6.44967 -6.44967,-6.44967 a 1.3138895,1.3138895 0 0 0 -1.13531,-0.36943 z" />
    </g>
  </g>
</svg>
