<?xml version="1.0" encoding="UTF-8" standalone="no"?>
<!-- Created with Inkscape (http://www.inkscape.org/) -->

<svg
   width="210mm"
   height="297mm"
   viewBox="0 0 210 297"
   version="1.1"
   id="svg1"
   inkscape:version="1.3.2 (091e20e, 2023-11-25)"
   sodipodi:docname="book_skull.svg"
   xmlns:inkscape="http://www.inkscape.org/namespaces/inkscape"
   xmlns:sodipodi="http://sodipodi.sourceforge.net/DTD/sodipodi-0.dtd"
   xmlns:xlink="http://www.w3.org/1999/xlink"
   xmlns="http://www.w3.org/2000/svg"
   xmlns:svg="http://www.w3.org/2000/svg">
  <sodipodi:namedview
     id="namedview1"
     pagecolor="#162050"
     bordercolor="#000000"
     borderopacity="0.25"
     inkscape:showpageshadow="2"
     inkscape:pageopacity="0.0"
     inkscape:pagecheckerboard="0"
     inkscape:deskcolor="#d1d1d1"
     inkscape:document-units="mm"
     inkscape:zoom="1.8547559"
     inkscape:cx="396.81772"
     inkscape:cy="704.13579"
     inkscape:window-width="1392"
     inkscape:window-height="891"
     inkscape:window-x="1877"
     inkscape:window-y="209"
     inkscape:window-maximized="0"
     inkscape:current-layer="layer1" />
  <defs
     id="defs1">
    <inkscape:path-effect
       effect="fillet_chamfer"
       id="path-effect24"
       is_visible="true"
       lpeversion="1"
       nodesatellites_param="F,0,0,1,0,0.4481266,0,1 @ F,0,0,1,0,0.71878127,0,1 @ F,0,0,1,0,0,0,1 @ F,0,0,1,0,0,0,1 @ F,0,0,1,0,0.68441424,0,1 @ F,0,0,1,0,0,0,1 @ F,0,0,1,0,0,0,1 @ F,0,0,1,0,0.85787161,0,1 @ F,0,0,1,0,0.83562522,0,1"
       radius="0"
       unit="px"
       method="auto"
       mode="F"
       chamfer_steps="1"
       flexible="false"
       use_knot_distance="true"
       apply_no_radius="true"
       apply_with_radius="true"
       only_selected="false"
       hide_knots="false" />
    <inkscape:path-effect
       effect="fillet_chamfer"
       id="path-effect23"
       is_visible="true"
       lpeversion="1"
       nodesatellites_param="F,0,1,1,0,1.5172352,0,1 @ F,0,0,1,0,1.4529861,0,1 @ F,0,0,1,0,0,0,1 @ F,0,0,1,0,0.60325102,0,1 @ F,0,0,1,0,1.6212016,0,1 @ F,0,0,1,0,0,0,1 @ F,0,0,1,0,0,0,1 @ F,0,0,1,0,0.45648484,0,1 @ F,0,0,1,0,0.60325102,0,1 @ F,0,0,1,0,0,0,1 @ F,0,0,1,0,0,0,1 @ F,0,0,1,0,1.2683087,0,1 @ F,0,0,1,0,1.1477861,0,1 @ F,0,0,1,0,0,0,1 @ F,0,0,1,0,2.0682278,0,1 @ F,0,0,1,0,1.5172352,0,1 | F,0,0,1,0,0,0,1 @ F,0,0,1,0,0,0,1 @ F,0,0,1,0,0,0,1 @ F,0,0,1,0,0,0,1 | F,0,0,1,0,0,0,1 @ F,0,0,1,0,0,0,1 @ F,0,0,1,0,0,0,1 @ F,0,0,1,0,0,0,1"
       radius="0"
       unit="px"
       method="auto"
       mode="F"
       chamfer_steps="1"
       flexible="false"
       use_knot_distance="true"
       apply_no_radius="true"
       apply_with_radius="true"
       only_selected="false"
       hide_knots="false" />
    <linearGradient
       id="linearGradient20"
       inkscape:collect="always">
      <stop
         style="stop-color:#03fbff;stop-opacity:1;"
         offset="0"
         id="stop19" />
      <stop
         style="stop-color:#30fcff;stop-opacity:1;"
         offset="1"
         id="stop20" />
    </linearGradient>
    <inkscape:path-effect
       effect="fillet_chamfer"
       id="path-effect18"
       is_visible="true"
       lpeversion="1"
       nodesatellites_param="F,0,0,1,0,0.64181518,0,1 @ F,0,0,1,0,0.66495171,0,1 @ F,0,0,1,0,0.72153271,0,1 @ F,0,0,1,0,1.4721907,0,1 @ F,0,0,1,0,0.81789211,0,1 @ F,0,0,1,0,1.1726211,0,1 @ F,0,0,1,0,0.71612338,0,1"
       radius="0"
       unit="px"
       method="auto"
       mode="F"
       chamfer_steps="1"
       flexible="false"
       use_knot_distance="true"
       apply_no_radius="true"
       apply_with_radius="true"
       only_selected="false"
       hide_knots="false" />
    <inkscape:path-effect
       effect="fillet_chamfer"
       id="path-effect12"
       is_visible="true"
       lpeversion="1"
       nodesatellites_param="F,0,0,1,0,0.64181518,0,1 @ F,0,0,1,0,0.66495171,0,1 @ F,0,0,1,0,0.72153271,0,1 @ F,0,0,1,0,1.4721907,0,1 @ F,0,0,1,0,0.81789211,0,1 @ F,0,0,1,0,1.1726211,0,1 @ F,0,0,1,0,0.71612338,0,1"
       radius="0"
       unit="px"
       method="auto"
       mode="F"
       chamfer_steps="1"
       flexible="false"
       use_knot_distance="true"
       apply_no_radius="true"
       apply_with_radius="true"
       only_selected="false"
       hide_knots="false" />
    <inkscape:path-effect
       effect="fillet_chamfer"
       id="path-effect10"
       is_visible="true"
       lpeversion="1"
       nodesatellites_param="F,0,0,1,0,0.64181518,0,1 @ F,0,0,1,0,0.72466745,0,1 @ F,0,0,1,0,0.72153271,0,1 @ F,0,0,1,0,0.56964582,0,1 @ F,0,0,1,0,0.81789211,0,1 @ F,0,0,1,0,2.5430069,0,1 @ F,0,0,1,0,0.71612338,0,1"
       radius="0"
       unit="px"
       method="auto"
       mode="F"
       chamfer_steps="1"
       flexible="false"
       use_knot_distance="true"
       apply_no_radius="true"
       apply_with_radius="true"
       only_selected="false"
       hide_knots="false" />
    <linearGradient
       id="linearGradient9"
       inkscape:collect="always">
      <stop
         style="stop-color:#ffcd03;stop-opacity:1;"
         offset="0"
         id="stop9" />
      <stop
         style="stop-color:#ffd530;stop-opacity:1;"
         offset="1"
         id="stop10" />
    </linearGradient>
    <linearGradient
       id="linearGradient6"
       inkscape:collect="always">
      <stop
         style="stop-color:#fafafa;stop-opacity:0.74000001;"
         offset="0"
         id="stop6" />
      <stop
         style="stop-color:#fefefe;stop-opacity:0.74285716;"
         offset="0.9434011"
         id="stop8" />
      <stop
         style="stop-color:#ffffff;stop-opacity:1;"
         offset="1"
         id="stop7" />
    </linearGradient>
    <linearGradient
       inkscape:collect="always"
       xlink:href="#linearGradient6"
       id="linearGradient7"
       x1="53.206513"
       y1="160.37447"
       x2="95.005764"
       y2="160.37447"
       gradientUnits="userSpaceOnUse"
       gradientTransform="matrix(0.97404622,-0.30431307,0.13062063,0.41809092,-35.424244,101.27121)" />
    <linearGradient
       inkscape:collect="always"
       xlink:href="#linearGradient9"
       id="linearGradient10"
       x1="47.312614"
       y1="143.60951"
       x2="95.148415"
       y2="119.6441"
       gradientUnits="userSpaceOnUse"
       gradientTransform="matrix(0.95450128,-0.29820681,0.13062063,0.41809092,-33.567359,100.69107)" />
    <linearGradient
       inkscape:collect="always"
       xlink:href="#linearGradient6"
       id="linearGradient18"
       gradientUnits="userSpaceOnUse"
       gradientTransform="matrix(0.97404622,-0.30431307,0.13062063,0.41809092,67.129499,94.868196)"
       x1="53.206513"
       y1="160.37447"
       x2="95.005764"
       y2="160.37447" />
    <linearGradient
       inkscape:collect="always"
       xlink:href="#linearGradient20"
       id="linearGradient19"
       gradientUnits="userSpaceOnUse"
       x1="47.312614"
       y1="143.60951"
       x2="95.148415"
       y2="119.6441"
       gradientTransform="matrix(0.95450128,-0.29820681,0.13062063,0.41809092,68.986384,94.288066)" />
  </defs>
  <g
     inkscape:label="Layer 1"
     inkscape:groupmode="layer"
     id="layer1">
    <rect
       style="opacity:1;fill:#cba300;fill-opacity:1;stroke:none;stroke-width:0.661831"
       id="rect2"
       width="47.645535"
       height="22.494297"
       x="-14.70662"
       y="136.40334"
       ry="1.6245883"
       transform="rotate(-17.349932)" />
    <path
       id="rect1"
       style="opacity:1;fill:url(#linearGradient10);stroke-width:0.661831"
       d="m 29.004057,129.71568 38.39736,-11.99617 c 1.961261,-0.61274 3.756254,-0.41442 4.024646,0.44465 l 5.739025,18.36949 c 0.268393,0.85907 -1.094457,2.04396 -3.055718,2.6567 l -34.336893,10.72759 -1.950167,0.80566 -2.1103,0.46291 c -1.963357,0.4307 -3.413412,1.15255 -3.224378,2.11686 0.189031,0.9643 -6.539294,-20.93099 -6.539294,-20.93099 -0.268392,-0.85907 1.094458,-2.04396 3.055719,-2.6567 z"
       sodipodi:nodetypes="sssssccszss" />
    <path
       d="m 77.579831,137.86116 c 0.268393,0.85907 -1.126706,2.05398 -3.128143,2.67928 l -35.293382,11.02641 c 0,0 -1.807712,0.49384 -1.561615,1.35449 0.22284,0.7793 2.045456,0.19419 2.045456,0.19419 l 35.293381,-11.02642 c 2.001438,-0.62529 3.485315,-1.53604 3.335505,-2.01555 z"
       style="opacity:1;fill:url(#linearGradient7);fill-opacity:0.828685;stroke-width:0.639938"
       id="path4"
       sodipodi:nodetypes="cscscssc" />
    <path
       d="m 91.296753,164.08094 c 2.054764,0 3.708817,-0.9744 3.708817,-2.12132 v -5.29166 c 0,2.05473 -1.654053,3.70881 -3.708817,3.70881 z"
       style="display:none;opacity:1;fill:#f8f8f8;fill-opacity:0.50996;stroke-width:0.957171"
       id="path6" />
    <path
       id="rect8"
       style="opacity:1;fill:#000000;fill-opacity:0.290837;stroke-width:0.54618"
       d="m 29.004055,129.71568 2.040105,-0.63738 v 0 l 6.707954,21.47084 0.0946,0.18321 -2.134706,0.45417 h -10e-7 l -6.707953,-21.47084 z"
       sodipodi:nodetypes="ccccccccc" />
    <path
       id="rect9"
       style="opacity:1;mix-blend-mode:lighten;fill:#ffffff;fill-opacity:0.525896;stroke-width:0.54618"
       d="m 31.024418,129.08447 2.040104,-0.63737 h 1e-6 l 6.707954,21.47084 h -1e-6 l -1.950166,0.80566 v 0 l -6.79789,-21.63913 z"
       sodipodi:nodetypes="ccccccccc" />
    <path
       style="opacity:1;mix-blend-mode:normal;fill:#b89400;fill-opacity:1;stroke:none;stroke-width:0.895897"
       d="m 69.897744,114.74839 -4.199926,13.49948 a 0.98645759,0.98645759 73.298704 0 0 0.316913,1.05624 l 5.145607,4.21396 a 1.1568487,1.1568487 71.267577 0 1 0.393224,1.15957 l -1.773416,7.54939 a 0.35429847,0.35429847 26.75111 0 0 0.615192,0.3101 l 8.646472,-10.20184 a 0.7723841,0.7723841 83.64348 0 0 -0.124346,-1.11621 l -3.597582,-2.7114 a 1.1634816,1.1634816 82.228482 0 1 -0.223367,-1.63666 l 5.483199,-7.15809 a 0.57141053,0.57141053 76.039771 0 0 -0.215506,-0.86691 L 70.671845,114.403 a 0.56439381,0.56439381 155.95437 0 0 -0.774101,0.34539 z"
       id="path11"
       sodipodi:nodetypes="cccccccc"
       inkscape:path-effect="#path-effect12"
       inkscape:original-d="m 70.088409,114.13555 -4.58813,14.74725 6.218286,5.09243 -2.275085,9.68498 10.127145,-11.94886 -5.187187,-3.90944 6.631755,-8.65748 z"
       transform="matrix(0.52006737,-0.16248027,0.13062063,0.41809092,-0.21653573,91.555207)" />
    <rect
       style="opacity:1;fill:#00c8cb;fill-opacity:1;stroke:none;stroke-width:0.661831"
       id="rect13"
       width="47.645535"
       height="22.494297"
       x="85.090515"
       y="160.87402"
       ry="1.6245883"
       transform="rotate(-17.349932)" />
    <path
       id="path13"
       style="opacity:1;fill:url(#linearGradient19);fill-opacity:1;stroke-width:0.661831"
       d="m 131.55781,123.31273 38.39736,-11.99616 c 1.96126,-0.61274 3.75625,-0.41444 4.02464,0.44463 l 5.73902,18.3695 c 0.2684,0.85908 -1.09445,2.04397 -3.05571,2.65671 l -34.33689,10.72758 -1.95017,0.80566 -2.1103,0.46292 c -1.96336,0.43068 -3.41341,1.15254 -3.22438,2.11685 0.18903,0.9643 -6.53929,-20.93099 -6.53929,-20.93099 -0.26839,-0.85907 1.09445,-2.04396 3.05572,-2.6567 z"
       sodipodi:nodetypes="sssssccszss" />
    <path
       d="m 180.13358,131.45821 c 0.26839,0.85907 -1.1267,2.05398 -3.12815,2.67928 l -35.29338,11.02641 c 0,0 -1.80771,0.49384 -1.56162,1.35449 0.22284,0.7793 2.04546,0.19419 2.04546,0.19419 l 35.29338,-11.02642 c 2.00145,-0.62529 3.48532,-1.53604 3.33551,-2.01555 z"
       style="opacity:1;fill:url(#linearGradient18);fill-opacity:0.828685;stroke-width:0.639938"
       id="path14"
       sodipodi:nodetypes="cscscssc" />
    <path
       id="path15"
       style="opacity:1;fill:#000000;fill-opacity:0.290837;stroke-width:0.54618"
       d="m 131.55781,123.31273 2.0401,-0.63737 v 0 l 6.70795,21.47084 0.0946,0.18318 -2.13471,0.45418 v 0 l -6.70796,-21.47084 z"
       sodipodi:nodetypes="ccccccccc" />
    <path
       id="path16"
       style="opacity:1;mix-blend-mode:lighten;fill:#ffffff;fill-opacity:0.525896;stroke-width:0.54618"
       d="m 133.57817,122.68153 2.0401,-0.63737 v 0 l 6.70796,21.47083 v 0 l -1.95017,0.80566 v 0 l -6.79793,-21.63911 z"
       sodipodi:nodetypes="ccccccccc" />
    <path
       style="opacity:1;mix-blend-mode:normal;fill:#ffffff;fill-opacity:0.766423;stroke:none;stroke-width:0.895897"
       d="m 69.897744,114.74839 -4.199926,13.49948 a 0.98645759,0.98645759 73.298704 0 0 0.316913,1.05624 l 5.145607,4.21396 a 1.1568487,1.1568487 71.267577 0 1 0.393224,1.15957 l -1.773416,7.54939 a 0.35429847,0.35429847 26.75111 0 0 0.615192,0.3101 l 8.646472,-10.20184 a 0.7723841,0.7723841 83.64348 0 0 -0.124346,-1.11621 l -3.597582,-2.7114 a 1.1634816,1.1634816 82.228482 0 1 -0.223367,-1.63666 l 5.483199,-7.15809 a 0.57141053,0.57141053 76.039771 0 0 -0.215506,-0.86691 L 70.671845,114.403 a 0.56439381,0.56439381 155.95437 0 0 -0.774101,0.34539 z"
       id="path17"
       sodipodi:nodetypes="cccccccc"
       inkscape:path-effect="#path-effect18"
       inkscape:original-d="m 70.088409,114.13555 -4.58813,14.74725 6.218286,5.09243 -2.275085,9.68498 10.127145,-11.94886 -5.187187,-3.90944 6.631755,-8.65748 z"
       transform="matrix(0.52006737,-0.16248027,0.13062063,0.41809092,102.33721,85.152174)" />
    <path
       id="path21"
       style="opacity:1;fill:#ffffff;stroke-width:0.943942"
       d="m 96.855918,177.97565 -0.932526,21.99655 a 1.392693,1.392693 46.213777 0 0 1.391443,1.45168 l 13.076875,0 -0.24862,3.72595 a 0.74924963,0.74924963 54.978509 0 0 0.53932,0.7696 l 0.45624,0.13203 a 1.4521568,1.4521568 147.99129 0 0 1.83445,-1.14668 l 0.60395,-3.4809 h 1.05265 l -0.0241,4.8295 a 0.45645956,0.45645956 45.284566 0 0 0.4542,0.45873 l 2.07859,0.0103 a 0.60327561,0.60327561 135.28415 0 0 0.60624,-0.60026 l 0.0234,-4.69825 h 1.22989 l 0.75731,3.99133 a 1.2685107,1.2685107 34.261038 0 0 1.48254,1.00985 l 0.70921,-0.13445 a 1.147776,1.147776 124.26535 0 0 0.91391,-1.34148 l -0.66833,-3.52525 11.25809,0 a 1.9824049,1.9824049 133.78623 0 0 1.98063,-2.06637 l -0.90647,-21.38186 a 1.5829194,1.5829194 43.786218 0 0 -1.5815,-1.51587 l -34.505873,1e-5 a 1.5829204,1.5829204 136.21377 0 0 -1.581499,1.51587 z m 27.821222,6.3299 c 3.15141,-4e-5 5.70615,2.5547 5.70612,5.70611 3e-5,3.1514 -2.55471,5.70615 -5.70612,5.70611 -3.1514,3e-5 -5.70614,-2.55471 -5.70611,-5.70611 -3e-5,-3.15141 2.55471,-5.70614 5.70611,-5.70611 z m -17.11833,0.28525 c 3.15141,-3e-5 5.70614,2.5547 5.70611,5.70611 3e-5,3.15141 -2.5547,5.70614 -5.70611,5.70611 -3.15121,-2.5e-4 -5.70563,-2.5549 -5.7056,-5.70611 -3e-5,-3.15121 2.55439,-5.70586 5.7056,-5.70611 z"
       inkscape:path-effect="#path-effect23"
       inkscape:original-d="m 96.920182,176.45978 -1.058333,24.9641 h 14.529861 l -0.28878,4.32786 2.59303,0.75038 0.88109,-5.07824 h 1.05265 l -0.0264,5.28598 3.13831,0.0155 0.0264,-5.30149 h 1.22989 l 0.99374,5.23741 3.08302,-0.58446 -0.88212,-4.65295 h 13.32632 l -1.05833,-24.9641 z m 27.756958,7.84577 c 3.15141,-4e-5 5.70615,2.5547 5.70612,5.70611 3e-5,3.1514 -2.55471,5.70615 -5.70612,5.70611 -3.1514,3e-5 -5.70614,-2.55471 -5.70611,-5.70611 -3e-5,-3.15141 2.55471,-5.70614 5.70611,-5.70611 z m -17.11833,0.28525 c 3.15141,-3e-5 5.70614,2.5547 5.70611,5.70611 3e-5,3.15141 -2.5547,5.70614 -5.70611,5.70611 -3.15121,-2.5e-4 -5.70563,-2.5549 -5.7056,-5.70611 -3e-5,-3.15121 2.55439,-5.70586 5.7056,-5.70611 z"
       sodipodi:nodetypes="ccccccccccccccccccccccccccc" />
    <path
       id="rect23"
       style="opacity:1;fill:#ffffff"
       d="m 97.686438,202.75633 7.925472,0.14553 a 1.2532721,1.2532721 30.887298 0 1 1.07017,0.64017 l 2.15633,3.84608 14.10916,0.25826 2.05157,-4.31324 a 1.0784054,1.0784054 147.8393 0 1 0.97839,-0.61518 l 7.17047,0.0301 -3.77142,11.6914 c -0.14546,0.45091 -0.64744,0.81917 -1.12122,0.82255 -8.5138,0.0608 -17.02758,0.12576 -25.54137,0.18939 -0.46149,0.003 -0.9639,-0.34519 -1.12217,-0.77871 l -4.199752,-11.50365 a 0.30736666,0.30736666 125.49794 0 1 0.29437,-0.41272 z"
       sodipodi:nodetypes="cccccccccc"
       inkscape:path-effect="#path-effect24"
       inkscape:original-d="m 97.238387,202.7481 9.092183,0.16696 2.50784,4.47305 14.10916,0.25826 2.34555,-4.9313 7.85488,0.033 v 0 l -4.03479,12.50784 c -9.07828,0.0645 -18.15655,0.13399 -27.23482,0.20174 z" />
  </g>
</svg>
