<?xml version="1.0" encoding="UTF-8" standalone="no"?>
<!-- Created with Inkscape (http://www.inkscape.org/) -->

<svg
   width="256"
   height="85"
   viewBox="0 0 67.733332 22.489583"
   version="1.1"
   id="svg1"
   sodipodi:docname="hpbar10.svg"
   inkscape:version="1.3.2 (9192263913, 2023-12-05, custom)"
   xmlns:inkscape="http://www.inkscape.org/namespaces/inkscape"
   xmlns:sodipodi="http://sodipodi.sourceforge.net/DTD/sodipodi-0.dtd"
   xmlns:xlink="http://www.w3.org/1999/xlink"
   xmlns="http://www.w3.org/2000/svg"
   xmlns:svg="http://www.w3.org/2000/svg">
  <sodipodi:namedview
     id="namedview1"
     pagecolor="#a0a0a0"
     bordercolor="#000000"
     borderopacity="0.25"
     inkscape:showpageshadow="2"
     inkscape:pageopacity="0.0"
     inkscape:pagecheckerboard="0"
     inkscape:deskcolor="#d1d1d1"
     inkscape:document-units="mm"
     inkscape:zoom="1.1483095"
     inkscape:cx="101.01806"
     inkscape:cy="215.53423"
     inkscape:window-width="2560"
     inkscape:window-height="1531"
     inkscape:window-x="0"
     inkscape:window-y="0"
     inkscape:window-maximized="1"
     inkscape:current-layer="layer1" />
  <defs
     id="defs1">
    <linearGradient
       id="linearGradient18"
       inkscape:label="level_highlight">
      <stop
         style="stop-color:#ffffff;stop-opacity:0.74407488;"
         offset="0"
         id="stop16" />
      <stop
         style="stop-color:#ffffff;stop-opacity:0;"
         offset="1"
         id="stop18" />
    </linearGradient>
    <linearGradient
       id="linearGradient3"
       inkscape:label="level_highlight">
      <stop
         style="stop-color:#f4f4f4;stop-opacity:0.65138459;"
         offset="0.02381036"
         id="stop9" />
      <stop
         style="stop-color:#929292;stop-opacity:0.40764233;"
         offset="0.38734019"
         id="stop10" />
      <stop
         style="stop-color:#060606;stop-opacity:0.30647433;"
         offset="0.92684662"
         id="stop12" />
      <stop
         style="stop-color:#000000;stop-opacity:1;"
         offset="1"
         id="stop13" />
    </linearGradient>
    <linearGradient
       id="linearGradient3-1"
       inkscape:label="level_sphere">
      <stop
         style="stop-color:#f4f4f4;stop-opacity:0.98114944;"
         offset="0.11736505"
         id="stop3" />
      <stop
         style="stop-color:#d2d2d2;stop-opacity:0.42446628;"
         offset="0.41931817"
         id="stop8" />
      <stop
         style="stop-color:#818181;stop-opacity:0.30626547;"
         offset="0.86438805"
         id="stop7" />
      <stop
         style="stop-color:#060606;stop-opacity:0.2546024;"
         offset="0.97237813"
         id="stop5" />
      <stop
         style="stop-color:#000000;stop-opacity:1;"
         offset="1"
         id="stop4" />
    </linearGradient>
    <inkscape:path-effect
       effect="fillet_chamfer"
       id="path-effect3"
       is_visible="true"
       lpeversion="1"
       nodesatellites_param="F,0,0,1,0,0,0,1 @ F,0,0,1,0,0,0,1 @ F,0,0,1,0,0,0,1 @ F,0,0,1,0,0,0,1 @ F,0,0,1,0,0,0,1 @ F,0,0,1,0,0,0,1 @ F,0,0,1,0,0,0,1 @ F,0,0,1,0,0,0,1"
       radius="0"
       unit="px"
       method="auto"
       mode="F"
       chamfer_steps="1"
       flexible="false"
       use_knot_distance="true"
       apply_no_radius="true"
       apply_with_radius="true"
       only_selected="false"
       hide_knots="false" />
    <linearGradient
       id="linearGradient65"
       inkscape:collect="always">
      <stop
         style="stop-color:#000000;stop-opacity:1;"
         offset="0"
         id="stop65" />
      <stop
         style="stop-color:#050505;stop-opacity:0;"
         offset="0.04772007"
         id="stop66" />
      <stop
         style="stop-color:#ffffff;stop-opacity:1;"
         offset="0.07794616"
         id="stop67" />
      <stop
         style="stop-color:#ffffff;stop-opacity:0;"
         offset="0.12804499"
         id="stop68" />
    </linearGradient>
    <linearGradient
       id="linearGradient49"
       inkscape:collect="always">
      <stop
         style="stop-color:#000000;stop-opacity:1;"
         offset="0"
         id="stop49" />
      <stop
         style="stop-color:#000000;stop-opacity:0.38315973;"
         offset="0.03692811"
         id="stop50" />
      <stop
         style="stop-color:#ffffff;stop-opacity:1;"
         offset="0.05316187"
         id="stop51" />
      <stop
         style="stop-color:#ffffff;stop-opacity:0;"
         offset="0.12538429"
         id="stop52" />
    </linearGradient>
    <linearGradient
       id="linearGradient38"
       inkscape:collect="always">
      <stop
         style="stop-color:#000000;stop-opacity:0.53058475;"
         offset="0"
         id="stop42" />
      <stop
         style="stop-color:#6f6f6f;stop-opacity:0.50961477;"
         offset="0.04054214"
         id="stop38" />
      <stop
         style="stop-color:#ffffff;stop-opacity:0.84552908;"
         offset="0.05945194"
         id="stop53" />
      <stop
         style="stop-color:#ffffff;stop-opacity:0.5;"
         offset="0.08126775"
         id="stop43" />
      <stop
         style="stop-color:#ffffff;stop-opacity:0.5;"
         offset="0.41281137"
         id="stop46" />
      <stop
         style="stop-color:#afafaf;stop-opacity:0.28919399;"
         offset="0.44162291"
         id="stop48" />
      <stop
         style="stop-color:#3e3e3e;stop-opacity:0.07214573;"
         offset="0.8849017"
         id="stop47" />
      <stop
         style="stop-color:#ffffff;stop-opacity:0.4075405;"
         offset="0.93924004"
         id="stop54" />
      <stop
         style="stop-color:#ffffff;stop-opacity:0.47713542;"
         offset="0.95294154"
         id="stop41" />
      <stop
         style="stop-color:#303030;stop-opacity:0.15126857;"
         offset="0.96629381"
         id="stop44" />
      <stop
         style="stop-color:#000000;stop-opacity:0.78611541;"
         offset="1"
         id="stop39" />
    </linearGradient>
    <inkscape:path-effect
       effect="fillet_chamfer"
       id="path-effect34"
       is_visible="true"
       lpeversion="1"
       nodesatellites_param="F,0,0,1,0,0,0,1 @ F,0,0,1,0,0,0,1 @ F,0,0,1,0,0,0,1 @ F,0,0,1,0,1.5710698,0,1 @ F,0,0,1,0,0.46056016,0,1 @ F,0,0,1,0,0.35876776,0,1 @ F,0,0,1,0,0.41320565,0,1 @ F,0,0,1,0,0.25323263,0,1 @ F,0,0,1,0,0.7537222,0,1 @ F,0,0,1,0,0.62326994,0,1 @ F,0,0,1,0,1.5364759,0,1 | F,0,0,1,0,0,0,1 @ F,0,0,1,0,0,0,1 @ F,0,0,1,0,0,0,1 @ F,0,0,1,0,0,0,1 @ F,0,0,1,0,0,0,1 @ F,0,0,1,0,0,0,1 @ F,0,0,1,0,0,0,1 @ F,0,0,1,0,0,0,1 @ F,0,0,1,0,0,0,1 @ F,0,0,1,0,0,0,1 @ F,0,0,1,0,0,0,1 | F,0,0,1,0,0.71302274,0,1 @ F,0,0,1,0,0.60595589,0,1 @ F,0,0,1,0,0.45165134,0,1 @ F,0,0,1,0,0.61015593,0,1 | F,0,0,1,0,0.46919556,0,1 @ F,0,0,1,0,0.42089292,0,1 @ F,0,0,1,0,0.34728072,0,1 @ F,0,0,1,0,0.57136139,0,1"
       radius="0"
       unit="px"
       method="auto"
       mode="F"
       chamfer_steps="1"
       flexible="false"
       use_knot_distance="true"
       apply_no_radius="true"
       apply_with_radius="true"
       only_selected="false"
       hide_knots="false" />
    <inkscape:path-effect
       effect="fillet_chamfer"
       id="path-effect32"
       is_visible="true"
       lpeversion="1"
       nodesatellites_param="F,0,0,1,0,0,0,1 @ F,0,0,1,0,0,0,1 @ F,0,0,1,0,0,0,1 @ F,0,0,1,0,1.5710698,0,1 @ F,0,0,1,0,0.46056016,0,1 @ F,0,0,1,0,0.35876776,0,1 @ F,0,0,1,0,0.41320565,0,1 @ F,0,0,1,0,0.25323263,0,1 @ F,0,0,1,0,0.7537222,0,1 @ F,0,0,1,0,0.62326994,0,1 @ F,0,0,1,0,1.5364759,0,1 | F,0,0,1,0,0,0,1 @ F,0,0,1,0,0,0,1 @ F,0,0,1,0,0,0,1 @ F,0,0,1,0,0,0,1 @ F,0,0,1,0,0,0,1 @ F,0,0,1,0,0,0,1 @ F,0,0,1,0,0,0,1 @ F,0,0,1,0,0,0,1 @ F,0,0,1,0,0,0,1 @ F,0,0,1,0,0,0,1 @ F,0,0,1,0,0,0,1 | F,0,0,1,0,0.71302274,0,1 @ F,0,0,1,0,0.60595589,0,1 @ F,0,0,1,0,0.45165134,0,1 @ F,0,0,1,0,0.61015593,0,1 | F,0,0,1,0,0.46919556,0,1 @ F,0,0,1,0,0.42089292,0,1 @ F,0,0,1,0,0.34728072,0,1 @ F,0,0,1,0,0.57136139,0,1"
       radius="0"
       unit="px"
       method="auto"
       mode="F"
       chamfer_steps="1"
       flexible="false"
       use_knot_distance="true"
       apply_no_radius="true"
       apply_with_radius="true"
       only_selected="false"
       hide_knots="false" />
    <inkscape:path-effect
       effect="fillet_chamfer"
       id="path-effect22"
       is_visible="true"
       lpeversion="1"
       nodesatellites_param="F,0,0,1,0,0,0,1 @ F,0,0,1,0,0,0,1 @ F,0,0,1,0,0,0,1 @ F,0,0,1,0,1.5710698,0,1 @ F,0,0,1,0,0.46056016,0,1 @ F,0,0,1,0,0.35876776,0,1 @ F,0,0,1,0,0.20403785,0,1 @ F,0,0,1,0,0.15380305,0,1 @ F,0,0,1,0,0.7537222,0,1 @ F,0,0,1,0,0.62326994,0,1 @ F,0,0,1,0,1.5364759,0,1 | F,0,0,1,0,0,0,1 @ F,0,0,1,0,0,0,1 @ F,0,0,1,0,0,0,1 @ F,0,0,1,0,0,0,1 @ F,0,0,1,0,0,0,1 @ F,0,0,1,0,0,0,1 @ F,0,0,1,0,0,0,1 @ F,0,0,1,0,0,0,1 @ F,0,0,1,0,0,0,1 @ F,0,0,1,0,0,0,1 @ F,0,0,1,0,0,0,1 | F,0,0,1,0,0.71302274,0,1 @ F,0,0,1,0,0.60595589,0,1 @ F,0,0,1,0,0.45165134,0,1 @ F,0,0,1,0,0.61015593,0,1 | F,0,0,1,0,0.41276211,0,1 @ F,0,0,1,0,0.42089292,0,1 @ F,0,0,1,0,0.34728072,0,1 @ F,0,0,1,0,0.4505084,0,1"
       radius="0"
       unit="px"
       method="auto"
       mode="F"
       chamfer_steps="1"
       flexible="false"
       use_knot_distance="true"
       apply_no_radius="true"
       apply_with_radius="true"
       only_selected="false"
       hide_knots="false" />
    <filter
       style="color-interpolation-filters:sRGB;"
       inkscape:label="Diffuse Light"
       id="filter22"
       x="-0.0074442167"
       y="-0.025295773"
       width="1.0148884"
       height="1.0505915">
      <feGaussianBlur
         in="SourceGraphic"
         stdDeviation="0.2"
         result="blur"
         id="feGaussianBlur21" />
      <feDiffuseLighting
         diffuseConstant="1"
         surfaceScale="10"
         lighting-color="rgb(253,189,91)"
         result="diffuse"
         id="feDiffuseLighting21">
        <feDistantLight
           elevation="50"
           azimuth="57"
           id="feDistantLight21" />
      </feDiffuseLighting>
      <feComposite
         in="diffuse"
         in2="diffuse"
         operator="arithmetic"
         k1="1"
         result="composite1"
         id="feComposite21" />
      <feComposite
         in="composite1"
         in2="SourceGraphic"
         k1="1"
         operator="arithmetic"
         k3="1"
         result="composite2"
         id="feComposite22" />
    </filter>
    <linearGradient
       inkscape:collect="always"
       xlink:href="#linearGradient38"
       id="linearGradient39"
       x1="39.791977"
       y1="4.6252151"
       x2="39.791977"
       y2="8.5262947"
       gradientUnits="userSpaceOnUse"
       gradientTransform="matrix(1.0206117,0,0,1.0206117,-11.796959,-0.22944284)" />
    <filter
       style="color-interpolation-filters:sRGB"
       id="filter48"
       inkscape:label="hp_texture"
       x="0"
       y="0"
       width="1"
       height="1">
      <feTurbulence
         id="feTurbulence49"
         baseFrequency="0.27441015625000004"
         seed="185"
         numOctaves="3"
         in="SourceGraphic"
         type="fractalNoise"
         result="result2" />
      <feColorMatrix
         id="feColorMatrix3"
         values="0 0 0 0 0 0 0 0 0 0 0 0 0 0 0 0 -0.20000000000000001 -0.29999999999999999 0.90000000000000002 0"
         result="result4" />
      <feComposite
         id="feComposite1"
         in2="SourceGraphic"
         operator="in"
         result="result3" />
      <feColorMatrix
         id="feColorMatrix2"
         values="0 0 0 0 0 0 0 0 0 0 0 0 0 0 0 0 -0.20000000000000001 -0.29999999999999999 0.80000000000000004 0"
         result="result1"
         in="result3" />
    </filter>
    <linearGradient
       inkscape:collect="always"
       xlink:href="#linearGradient49"
       id="linearGradient50"
       gradientUnits="userSpaceOnUse"
       x1="62.208023"
       y1="6.4472618"
       x2="59.278065"
       y2="6.8514619"
       gradientTransform="matrix(1.0206117,0,0,1.0206117,-0.15529076,-0.22944284)" />
    <filter
       inkscape:collect="always"
       style="color-interpolation-filters:sRGB"
       id="filter56"
       x="-0.006137723"
       y="-0.020856251"
       width="1.0122754"
       height="1.0417125"
       inkscape:label="frame_shadow">
      <feGaussianBlur
         inkscape:collect="always"
         stdDeviation="0.16489909"
         id="feGaussianBlur56" />
    </filter>
    <linearGradient
       inkscape:collect="always"
       xlink:href="#linearGradient38"
       id="linearGradient58"
       x1="22.173473"
       y1="14.405229"
       x2="22.173473"
       y2="17.691946"
       gradientUnits="userSpaceOnUse" />
    <linearGradient
       inkscape:collect="always"
       xlink:href="#linearGradient65"
       id="linearGradient59"
       gradientUnits="userSpaceOnUse"
       x1="25.351366"
       y1="15.655772"
       x2="23.745117"
       y2="15.908612" />
    <radialGradient
       inkscape:collect="always"
       xlink:href="#linearGradient3"
       id="radialGradient4"
       cx="10.381349"
       cy="11.117838"
       fx="10.381349"
       fy="11.117838"
       r="6.7647061"
       gradientTransform="translate(0)"
       gradientUnits="userSpaceOnUse" />
    <linearGradient
       inkscape:collect="always"
       xlink:href="#linearGradient18"
       id="linearGradient19"
       x1="9.5724878"
       y1="0.73769879"
       x2="10.010237"
       y2="15.413826"
       gradientUnits="userSpaceOnUse" />
    <linearGradient
       inkscape:collect="always"
       xlink:href="#linearGradient18"
       id="linearGradient20"
       gradientUnits="userSpaceOnUse"
       x1="9.5724878"
       y1="0.73769879"
       x2="10.010237"
       y2="15.413826"
       gradientTransform="matrix(0.81250562,0,0,1.0206117,2.0122684,-0.06651754)" />
  </defs>
  <g
     inkscape:label="Layer 1"
     inkscape:groupmode="layer"
     id="layer1"
     style="display:inline">
    <path
       d="m 19.724377,14.336076 c -0.259129,0 -0.539112,0.197994 -0.63872,0.437182 -0.379809,0.912037 -0.900119,1.758945 -1.542025,2.509408 -0.20508,0.239762 -0.128485,0.422713 0.187069,0.422713 h 7.60212 a 0.29699542,0.29699542 0 0 0 0.293522,-0.343131 l -0.410311,-2.610177 a 0.49215573,0.49215573 0 0 0 -0.485759,-0.415995 z"
       style="display:none;fill:#ffcc0a;fill-opacity:1;stroke-width:0.797065"
       id="path36"
       transform="matrix(1.0206117,0,0,1.0206117,-0.15529081,-0.22944284)"
       inkscape:label="cooldown" />
    <g
       id="g57"
       inkscape:label="cooldown">
      <path
         d="m 19.724377,14.336076 c -0.259129,0 -0.539112,0.197994 -0.63872,0.437182 -0.379809,0.912037 -0.900119,1.758945 -1.542025,2.509408 -0.20508,0.239762 -0.128485,0.422713 0.187069,0.422713 h 7.60212 a 0.29699542,0.29699542 0 0 0 0.293522,-0.343131 l -0.410311,-2.610177 a 0.49215573,0.49215573 0 0 0 -0.485759,-0.415995 z"
         style="display:none;fill:#09ff06;fill-opacity:1;stroke-width:0.797065"
         id="path68"
         transform="matrix(1.0206117,0,0,1.0206117,-0.15529081,-0.22944284)"
         inkscape:label="cooldown_progress" />
      <path
         d="m 19.724377,14.336076 c -0.259129,0 -0.539112,0.197994 -0.63872,0.437182 -0.379809,0.912037 -0.900119,1.758945 -1.542025,2.509408 -0.20508,0.239762 -0.128485,0.422713 0.187069,0.422713 h 7.60212 a 0.29699542,0.29699542 0 0 0 0.293522,-0.343131 l -0.410311,-2.610177 a 0.49215573,0.49215573 0 0 0 -0.485759,-0.415995 z"
         style="display:none;fill:url(#linearGradient59);fill-opacity:1;stroke-width:0.797065"
         id="path58"
         transform="matrix(1.0206117,0,0,1.0206117,-0.15529081,-0.22944284)"
         inkscape:label="cooldown_shadow" />
      <path
         d="m 19.724377,14.336076 c -0.259129,0 -0.539112,0.197994 -0.63872,0.437182 -0.379809,0.912037 -0.900119,1.758945 -1.542025,2.509408 -0.20508,0.239762 -0.128485,0.422713 0.187069,0.422713 h 7.60212 a 0.29699542,0.29699542 0 0 0 0.293522,-0.343131 l -0.410311,-2.610177 a 0.49215573,0.49215573 0 0 0 -0.485759,-0.415995 z"
         style="display:none;fill:#000000;fill-opacity:1;stroke-width:0.797065;filter:url(#filter48)"
         id="path1"
         transform="matrix(1.0206117,0,0,1.0206117,-0.15529081,-0.22944284)"
         inkscape:label="cooldown_texture" />
      <path
         d="m 19.724377,14.336076 c -0.259129,0 -0.539112,0.197994 -0.63872,0.437182 -0.379809,0.912037 -0.900119,1.758945 -1.542025,2.509408 -0.20508,0.239762 -0.128485,0.422713 0.187069,0.422713 h 7.60212 a 0.29699542,0.29699542 0 0 0 0.293522,-0.343131 l -0.410311,-2.610177 a 0.49215573,0.49215573 0 0 0 -0.485759,-0.415995 z"
         style="display:inline;fill:url(#linearGradient58);fill-opacity:1;stroke-width:0.797065"
         id="path56"
         transform="matrix(1.0206117,0,0,1.0206117,-0.15529081,-0.22944284)"
         inkscape:label="cooldown_highlight" />
    </g>
    <path
       d="m 17.871777,4.5578613 c -0.393791,0 -0.48749,0.2268222 -0.234094,0.5281332 0.729361,0.8672771 1.296951,1.8587299 1.67535,2.9274699 0.11245,0.3176013 0.458321,0.5813598 0.7953,0.5813598 h 41.969532 a 0.3963123,0.3963123 0 0 0 0.39274,-0.4480346 L 62.078898,5.1588582 A 0.6905685,0.6905685 0 0 0 61.394185,4.5578613 Z"
       style="display:none;fill:#ffcc0a;fill-opacity:1;stroke-width:0.797065"
       id="path35"
       transform="matrix(1.0206117,0,0,1.0206117,-0.15529081,-0.22944284)"
       inkscape:label="hp" />
    <g
       id="g38"
       inkscape:label="hp"
       style="display:inline">
      <path
         d="m 18.084854,4.4223637 c -0.401907,0 -0.497538,0.2314974 -0.238919,0.539019 0.744395,0.8851531 1.323684,1.8970414 1.709882,2.98781 0.114768,0.3241476 0.467768,0.5933426 0.811692,0.5933426 H 63.202105 A 0.40448097,0.40448097 0 0 0 63.60294,8.0852659 L 63.203159,5.0357482 A 0.70480229,0.70480229 0 0 0 62.504333,4.4223637 Z"
         style="display:none;fill:#07f1ff;fill-opacity:1;stroke-width:0.813494"
         id="path37"
         inkscape:label="hp_progress" />
      <path
         d="m 18.084854,4.4223637 c -0.401907,0 -0.497538,0.2314974 -0.238919,0.539019 0.744395,0.8851531 1.323684,1.8970414 1.709882,2.98781 0.114768,0.3241476 0.467768,0.5933426 0.811692,0.5933426 H 63.202105 A 0.40448097,0.40448097 0 0 0 63.60294,8.0852659 L 63.203159,5.0357482 A 0.70480229,0.70480229 0 0 0 62.504333,4.4223637 Z"
         style="display:none;opacity:1;fill:url(#linearGradient50);fill-opacity:1;stroke-width:0.813494"
         id="path49"
         inkscape:label="hp_shadow" />
      <path
         d="m 17.871777,4.5578613 c -0.393791,0 -0.48749,0.2268222 -0.234094,0.5281332 0.729361,0.8672771 1.296951,1.8587299 1.67535,2.9274699 0.11245,0.3176013 0.458321,0.5813598 0.7953,0.5813598 h 41.969532 a 0.3963123,0.3963123 0 0 0 0.39274,-0.4480346 L 62.078898,5.1588582 A 0.6905685,0.6905685 0 0 0 61.394185,4.5578613 Z"
         style="display:none;opacity:1;fill:#00f835;fill-opacity:1;stroke-width:0.797065;filter:url(#filter48)"
         id="path48"
         transform="matrix(1.0206117,0,0,1.0206117,-0.15529076,-0.22944284)"
         inkscape:label="hp_texture" />
      <path
         d="m 6.4431821,4.4223637 c -0.4019067,0 -0.4975377,0.2314974 -0.2389187,0.539019 0.7443944,0.8851531 1.3236831,1.8970414 1.7098808,2.98781 0.114768,0.3241476 0.467768,0.5933426 0.8116917,0.5933426 H 51.560431 c 0.24428,-1.126e-4 0.432716,-0.2150792 0.400835,-0.4572694 L 51.561485,5.0357482 C 51.515581,4.684833 51.216564,4.4223749 50.862659,4.4223637 Z"
         style="display:inline;opacity:1;fill:url(#linearGradient39);fill-opacity:1;stroke-width:0.813494"
         id="path38"
         inkscape:label="hp_highlight"
         inkscape:path-effect="#path-effect3"
         inkscape:original-d="m 6.4431821,4.4223637 c -0.4019067,0 -0.4975377,0.2314974 -0.2389187,0.539019 0.7443944,0.8851531 1.3236831,1.8970414 1.7098808,2.98781 0.114768,0.3241476 0.467768,0.5933426 0.8116917,0.5933426 H 51.560431 A 0.40448097,0.40448097 0 0 0 51.961266,8.0852659 L 51.561485,5.0357482 A 0.70480229,0.70480229 0 0 0 50.862659,4.4223637 Z"
         transform="translate(11.641668)" />
    </g>
    <path
       d="M 10.415902,4.4064494 C 6.6796333,4.4062396 3.6507303,7.4351428 3.6509399,11.171411 c 7.58e-5,3.736066 3.0288951,6.764655 6.7649621,6.764445 1.018557,-0.01606 2.020338,-0.261957 2.93057,-0.719336 0.867856,-0.425145 1.634546,-1.031309 2.248442,-1.777669 0.292296,-0.341147 0.549884,-0.710563 0.768945,-1.102775 0.392849,-0.760905 0.637653,-1.589483 0.721403,-2.441712 0.04467,-0.239099 0.07642,-0.480434 0.09509,-0.722953 -0.0021,-0.06188 -0.005,-0.123718 -0.0088,-0.185518 -0.02223,-0.82116 -0.19384,-1.6314071 -0.506429,-2.3910688 C 15.622058,6.0623216 13.154801,4.4087094 10.415902,4.4064494 Z"
       style="display:none;fill:#0afcff;fill-opacity:1;stroke-width:0.797065"
       id="path34"
       transform="matrix(1.0206117,0,0,1.0206117,-0.15529081,-0.22944284)"
       inkscape:label="level" />
    <g
       id="g20"
       inkscape:label="level">
      <path
         d="M 10.415902,4.4064494 C 6.6796333,4.4062396 3.6507303,7.4351428 3.6509399,11.171411 c 7.58e-5,3.736066 3.0288951,6.764655 6.7649621,6.764445 1.018557,-0.01606 2.020338,-0.261957 2.93057,-0.719336 0.867856,-0.425145 1.634546,-1.031309 2.248442,-1.777669 0.292296,-0.341147 0.549884,-0.710563 0.768945,-1.102775 0.392849,-0.760905 0.637653,-1.589483 0.721403,-2.441712 0.04467,-0.239099 0.07642,-0.480434 0.09509,-0.722953 -0.0021,-0.06188 -0.005,-0.123718 -0.0088,-0.185518 -0.02223,-0.82116 -0.19384,-1.6314071 -0.506429,-2.3910688 C 15.622058,6.0623216 13.154801,4.4087094 10.415902,4.4064494 Z"
         style="display:inline;fill:url(#radialGradient4);stroke-width:0.797065"
         id="path3"
         transform="matrix(1.0206117,0,0,1.0206117,-0.15529081,-0.22944284)"
         inkscape:label="level_sphere" />
      <path
         d="M 10.415902,4.4064494 C 6.6796333,4.4062396 3.6507303,7.4351428 3.6509399,11.171411 c 7.58e-5,3.736066 3.0288951,6.764655 6.7649621,6.764445 1.018557,-0.01606 2.020338,-0.261957 2.93057,-0.719336 0.867856,-0.425145 1.634546,-1.031309 2.248442,-1.777669 0.292296,-0.341147 0.549884,-0.710563 0.768945,-1.102775 0.392849,-0.760905 0.637653,-1.589483 0.721403,-2.441712 0.04467,-0.239099 0.07642,-0.480434 0.09509,-0.722953 -0.0021,-0.06188 -0.005,-0.123718 -0.0088,-0.185518 -0.02223,-0.82116 -0.19384,-1.6314071 -0.506429,-2.3910688 C 15.622058,6.0623216 13.154801,4.4087094 10.415902,4.4064494 Z"
         style="display:inline;fill:url(#linearGradient19);fill-opacity:1;stroke-width:0.797065"
         id="path9"
         transform="matrix(1.0206117,0,0,1.0206117,-0.15529081,-0.22944284)"
         inkscape:label="level_highlight" />
      <path
         d="M 10.475247,4.4307564 C 7.439508,4.4305422 4.9785073,7.5218763 4.9786776,11.335156 c 6.16e-5,3.813073 2.4609943,6.904086 5.4965694,6.903872 0.827583,-0.01639 1.641537,-0.267357 2.381105,-0.734163 0.705138,-0.433908 1.328077,-1.052566 1.826871,-1.81431 0.237492,-0.348178 0.446785,-0.725209 0.624773,-1.125505 0.319192,-0.776588 0.518096,-1.622245 0.586144,-2.49204 0.0363,-0.244027 0.06209,-0.490336 0.07726,-0.737854 -0.0017,-0.06316 -0.0041,-0.126268 -0.0071,-0.189342 C 15.946188,10.307729 15.806755,9.4807803 15.552775,8.7054607 14.705278,6.1207589 12.700619,4.433063 10.475247,4.4307564 Z"
         style="display:inline;fill:url(#linearGradient20);fill-opacity:1;stroke-width:0.725834"
         id="path19"
         inkscape:label="level_highligh1" />
    </g>
    <path
       id="path31"
       style="display:inline;opacity:0.893628;fill:#000000;fill-opacity:1;stroke-width:0.797065;filter:url(#filter56)"
       d="m 10.415902,1.7228923 c -5.2183013,-6.87e-5 -9.44858762,4.2302174 -9.44851919,9.4485187 2.1693e-4,5.2181 4.23041969,9.448071 9.44851919,9.448002 0.473867,-0.0093 0.945608,-0.05433 1.411287,-0.134219 0.854198,-0.146552 2.22267,-0.390354 3.090343,-0.387239 l 13.080123,0.04697 a 0.40380137,0.40380137 131.44876 0 0 0.401971,-0.455165 l -0.95411,-7.439538 A 0.40771762,0.40771762 41.345896 0 0 27.04111,11.894364 h -6.845649 c -0.228208,0 -0.383053,-0.182673 -0.358506,-0.409539 0.01055,-0.09751 0.01677,-0.177345 0.02005,-0.24587 0.0067,-0.139602 0.113066,-0.251717 0.252913,-0.250057 l 43.588291,0.517219 a 0.82885107,0.82885107 138.39778 0 0 0.833968,-0.74049 L 65.443813,2.2573489 A 0.55437663,0.55437663 47.767684 0 0 64.886976,1.6439391 L 14.805871,2.15123 c -0.848529,0.0086 -2.193274,-0.2064237 -3.032,-0.3290106 -0.449022,-0.065628 -0.902845,-0.098919 -1.357969,-0.099327 z m 0,2.6835571 c 2.738902,0.00226 5.206155,1.6558696 6.249231,4.1883748 0.31259,0.7596624 0.4842,1.5699078 0.506429,2.3910688 0.0038,0.0618 0.0067,0.123641 0.0088,0.185518 -0.01867,0.242519 -0.05042,0.483853 -0.09509,0.722953 -0.08375,0.852229 -0.328554,1.680806 -0.721403,2.441712 -0.219061,0.392213 -0.476648,0.761628 -0.768945,1.102775 -0.613896,0.746361 -1.380585,1.352523 -2.248442,1.777669 -0.910233,0.457379 -1.912012,0.703275 -2.93057,0.719336 -3.7360704,2.1e-4 -6.7648863,-3.028375 -6.7649621,-6.764445 -2.096e-4,-3.7362721 3.02869,-6.7651714 6.7649621,-6.7649616 z m 7.455764,0.1514119 h 43.522728 a 0.6905685,0.6905685 41.266109 0 1 0.684711,0.6008162 l 0.391711,2.9883262 a 0.3963123,0.3963123 131.26611 0 1 -0.39295,0.4478205 l -41.969675,0 c -0.33698,0 -0.682644,-0.2637405 -0.795094,-0.5813422 C 18.934697,6.944741 18.367073,5.9530149 17.637712,5.0857369 17.384316,4.7844256 17.477874,4.5578613 17.871666,4.5578613 Z m 1.852685,9.7782147 h 5.005675 a 0.49215573,0.49215573 40.537152 0 1 0.486196,0.415796 l 0.409982,2.610432 a 0.29699542,0.29699542 130.53715 0 1 -0.293399,0.343075 H 17.73052 c -0.315554,0 -0.392156,-0.182942 -0.187075,-0.422704 0.641907,-0.750464 1.162353,-1.597128 1.542162,-2.509165 0.09961,-0.239189 0.379614,-0.437434 0.638744,-0.437434 z"
       sodipodi:nodetypes="cccccccccccccccccccccccccccccccccc"
       inkscape:path-effect="#path-effect32"
       inkscape:original-d="m 10.415902,1.7228923 c -5.2183013,-6.87e-5 -9.44858762,4.2302174 -9.44851919,9.4485187 2.1693e-4,5.2181 4.23041969,9.448071 9.44851919,9.448002 0.998576,-0.0197 1.987713,-0.197611 2.93057,-0.527099 l 15.11174,0.05426 -1.058334,-8.25221 h -7.617623 c 0.08057,-0.529583 0.08307,-0.730835 0.07445,-0.908471 L 64.45188,11.51506 65.510214,1.6376261 13.269474,2.1667928 C 12.34665,1.8734761 11.38422,1.7237609 10.415902,1.7228923 Z m 0,2.6835571 c 2.738902,0.00226 5.206155,1.6558696 6.249231,4.1883748 0.31259,0.7596624 0.4842,1.5699078 0.506429,2.3910688 0.0038,0.0618 0.0067,0.123641 0.0088,0.185518 -0.01867,0.242519 -0.05042,0.483853 -0.09509,0.722953 -0.08375,0.852229 -0.328554,1.680806 -0.721403,2.441712 -0.219061,0.392213 -0.476648,0.761628 -0.768945,1.102775 -0.613896,0.746361 -1.380585,1.352523 -2.248442,1.777669 -0.910233,0.457379 -1.912012,0.703275 -2.93057,0.719336 -3.7360704,2.1e-4 -6.7648863,-3.028375 -6.7649621,-6.764445 -2.096e-4,-3.7362721 3.02869,-6.7651714 6.7649621,-6.7649616 z m 6.742741,0.1514119 H 62.00035 l 0.529167,4.0369629 H 19.498035 C 19.06798,7.0747617 18.263659,5.6867885 17.158643,4.5578613 Z m 2.096512,9.7782147 h 5.895764 l 0.529167,3.369303 h -8.520927 c 0.929282,-0.962076 1.6437,-2.1105 2.095996,-3.369303 z"
       inkscape:label="frame_shadow"
       transform="matrix(1.0206117,0,0,1.0206117,-0.15529081,-0.22944284)" />
    <path
       id="path11"
       style="fill:#d4aa00;stroke-width:0.797065;filter:url(#filter22)"
       d="m 10.415902,1.7228923 c -5.2183013,-6.87e-5 -9.44858762,4.2302174 -9.44851919,9.4485187 2.1693e-4,5.2181 4.23041969,9.448071 9.44851919,9.448002 0.473867,-0.0093 0.945608,-0.05433 1.411287,-0.134219 0.854198,-0.146552 2.22267,-0.390354 3.090343,-0.387239 l 13.080123,0.04697 a 0.40380137,0.40380137 131.44876 0 0 0.401971,-0.455165 l -0.95411,-7.439538 A 0.40771762,0.40771762 41.345896 0 0 27.04111,11.894364 h -7.054817 c -0.112687,0 -0.190009,-0.09028 -0.174878,-0.201941 0.03576,-0.263874 0.04727,-0.426906 0.04854,-0.55285 8.56e-4,-0.08489 0.06561,-0.152863 0.150545,-0.151855 l 43.687714,0.518399 a 0.82885107,0.82885107 138.39778 0 0 0.833968,-0.74049 L 65.443813,2.2573489 A 0.55437663,0.55437663 47.767684 0 0 64.886976,1.6439391 L 14.805871,2.15123 c -0.848529,0.0086 -2.193274,-0.2064237 -3.032,-0.3290106 -0.449022,-0.065628 -0.902845,-0.098919 -1.357969,-0.099327 z m 0,2.6835571 c 2.738902,0.00226 5.206155,1.6558696 6.249231,4.1883748 0.31259,0.7596624 0.4842,1.5699078 0.506429,2.3910688 0.0038,0.0618 0.0067,0.123641 0.0088,0.185518 -0.01867,0.242519 -0.05042,0.483853 -0.09509,0.722953 -0.08375,0.852229 -0.328554,1.680806 -0.721403,2.441712 -0.219061,0.392213 -0.476648,0.761628 -0.768945,1.102775 -0.613896,0.746361 -1.380585,1.352523 -2.248442,1.777669 -0.910233,0.457379 -1.912012,0.703275 -2.93057,0.719336 -3.7360704,2.1e-4 -6.7648863,-3.028375 -6.7649621,-6.764445 -2.096e-4,-3.7362721 3.02869,-6.7651714 6.7649621,-6.7649616 z m 7.455764,0.1514119 h 43.522728 a 0.6905685,0.6905685 41.266109 0 1 0.684711,0.6008162 l 0.391711,2.9883262 a 0.3963123,0.3963123 131.26611 0 1 -0.39295,0.4478205 l -41.969675,0 c -0.33698,0 -0.682644,-0.2637405 -0.795094,-0.5813422 C 18.934697,6.944741 18.367073,5.9530149 17.637712,5.0857369 17.384316,4.7844256 17.477874,4.5578613 17.871666,4.5578613 Z m 1.796251,9.7782147 h 5.062109 a 0.49215573,0.49215573 40.537152 0 1 0.486196,0.415796 l 0.409982,2.610432 a 0.29699542,0.29699542 130.53715 0 1 -0.293399,0.343075 h -7.723138 c -0.248809,0 -0.309479,-0.144394 -0.145363,-0.331369 0.690772,-0.786987 1.245995,-1.683439 1.642842,-2.652661 0.08637,-0.210944 0.332809,-0.385273 0.560771,-0.385273 z"
       sodipodi:nodetypes="cccccccccccccccccccccccccccccccccc"
       inkscape:path-effect="#path-effect22"
       inkscape:original-d="m 10.415902,1.7228923 c -5.2183013,-6.87e-5 -9.44858762,4.2302174 -9.44851919,9.4485187 2.1693e-4,5.2181 4.23041969,9.448071 9.44851919,9.448002 0.998576,-0.0197 1.987713,-0.197611 2.93057,-0.527099 l 15.11174,0.05426 -1.058334,-8.25221 h -7.617623 c 0.08057,-0.529583 0.08307,-0.730835 0.07445,-0.908471 L 64.45188,11.51506 65.510214,1.6376261 13.269474,2.1667928 C 12.34665,1.8734761 11.38422,1.7237609 10.415902,1.7228923 Z m 0,2.6835571 c 2.738902,0.00226 5.206155,1.6558696 6.249231,4.1883748 0.31259,0.7596624 0.4842,1.5699078 0.506429,2.3910688 0.0038,0.0618 0.0067,0.123641 0.0088,0.185518 -0.01867,0.242519 -0.05042,0.483853 -0.09509,0.722953 -0.08375,0.852229 -0.328554,1.680806 -0.721403,2.441712 -0.219061,0.392213 -0.476648,0.761628 -0.768945,1.102775 -0.613896,0.746361 -1.380585,1.352523 -2.248442,1.777669 -0.910233,0.457379 -1.912012,0.703275 -2.93057,0.719336 -3.7360704,2.1e-4 -6.7648863,-3.028375 -6.7649621,-6.764445 -2.096e-4,-3.7362721 3.02869,-6.7651714 6.7649621,-6.7649616 z m 6.742741,0.1514119 H 62.00035 l 0.529167,4.0369629 H 19.498035 C 19.06798,7.0747617 18.263659,5.6867885 17.158643,4.5578613 Z m 2.096512,9.7782147 h 5.895764 l 0.529167,3.369303 h -8.520927 c 0.929282,-0.962076 1.6437,-2.1105 2.095996,-3.369303 z"
       inkscape:label="frame"
       transform="matrix(1.0206117,0,0,1.0206117,-0.15529081,-0.22944284)" />
    <g
       id="g31"
       inkscape:label="screws"
       transform="matrix(1.0206117,0,0,1.0206117,-0.15529081,-0.22944284)"
       style="display:inline">
      <g
         id="g30"
         inkscape:label="screw_rightop">
        <circle
           style="display:inline;opacity:1;fill:#4d4d4d;stroke-width:0.367103"
           id="path22"
           cx="52.886791"
           cy="-35.708561"
           r="0.54452634"
           transform="rotate(37.19005)" />
        <path
           d="m 63.370413,3.8162155 0.536471,-0.7070294 a 0.45549453,0.45549453 0 0 0 -0.553759,0.1368687 0.45549453,0.45549453 0 0 0 0.01729,0.5701607 z"
           style="display:inline;opacity:1;fill:#cccccc;stroke-width:0.307081"
           id="path24" />
        <path
           d="m 64.067856,3.2321487 -0.534755,0.7047685 a 0.45549453,0.45549453 0 0 0 0.545658,-0.1402748 0.45549453,0.45549453 0 0 0 -0.0109,-0.5644937 z"
           style="display:inline;opacity:1;fill:#cccccc;stroke-width:0.307081"
           id="path23" />
      </g>
      <g
         id="g29"
         inkscape:label="screw_lefttop">
        <circle
           style="display:inline;fill:#4d4d4d;stroke-width:0.367103"
           id="circle24"
           cx="9.7103214"
           cy="-3.4981515"
           r="0.54452634"
           transform="rotate(37.19005)" />
        <path
           d="M 9.5046013,3.3776692 10.041072,2.6706398 a 0.45549453,0.45549453 0 0 0 -0.5537587,0.1368687 0.45549453,0.45549453 0 0 0 0.01729,0.5701607 z"
           style="display:inline;fill:#cccccc;stroke-width:0.307081"
           id="path25" />
        <path
           d="M 10.202044,2.7936024 9.6672893,3.4983709 a 0.45549453,0.45549453 0 0 0 0.5456577,-0.1402748 0.45549453,0.45549453 0 0 0 -0.0109,-0.5644937 z"
           style="display:inline;fill:#cccccc;stroke-width:0.307081"
           id="path26" />
      </g>
      <g
         id="g28"
         inkscape:label="screw_leftbot">
        <circle
           style="display:inline;fill:#4d4d4d;stroke-width:0.367103"
           id="circle26"
           cx="19.925589"
           cy="9.173789"
           r="0.54452634"
           transform="rotate(37.19005)" />
        <path
           d="M 9.9827495,19.647308 10.51922,18.940279 a 0.45549453,0.45549453 0 0 0 -0.5537585,0.136868 0.45549453,0.45549453 0 0 0 0.01729,0.570161 z"
           style="display:inline;fill:#cccccc;stroke-width:0.307081"
           id="path27" />
        <path
           d="m 10.680192,19.063241 -0.534755,0.704769 a 0.45549453,0.45549453 0 0 0 0.545658,-0.140275 0.45549453,0.45549453 0 0 0 -0.0109,-0.564494 z"
           style="display:inline;fill:#cccccc;stroke-width:0.307081"
           id="path28" />
      </g>
    </g>
    <g
       id="g37"
       inkscape:label="texts"
       style="display:none;fill:#000000;fill-opacity:1">
      <text
         xml:space="preserve"
         style="font-size:3.52778px;font-family:'j Justrue';-inkscape-font-specification:'j Justrue';text-align:center;text-anchor:middle;opacity:1;fill:#000000;fill-opacity:1;stroke-width:0.727001"
         x="23.886059"
         y="17.352182"
         id="text36"
         inkscape:label="cooldown_txt"><tspan
           sodipodi:role="line"
           id="tspan36"
           style="font-size:3.52778px;fill:#000000;fill-opacity:1;stroke-width:0.727"
           x="23.886059"
           y="17.352182">15</tspan></text>
      <text
         xml:space="preserve"
         style="font-size:3.52778px;font-family:'j Justrue';-inkscape-font-specification:'j Justrue';text-align:center;text-anchor:middle;display:inline;opacity:1;fill:#000000;fill-opacity:1;stroke-width:0.727001"
         x="60.104057"
         y="7.6776972"
         id="text37"
         inkscape:label="hp_txt"><tspan
           sodipodi:role="line"
           id="tspan37"
           style="font-size:3.52778px;fill:#000000;fill-opacity:1;stroke-width:0.727"
           x="60.104057"
           y="7.6776972">1500</tspan></text>
      <text
         xml:space="preserve"
         style="font-size:7.05556px;font-family:'j Justrue';-inkscape-font-specification:'j Justrue';text-align:center;text-anchor:middle;opacity:1;fill:#000000;fill-opacity:1;stroke-width:0.727001"
         x="10.38076"
         y="13.110988"
         id="text20"
         inkscape:label="level_txt"><tspan
           sodipodi:role="line"
           id="tspan20"
           style="font-size:7.05556px;fill:#000000;fill-opacity:1;stroke-width:0.727"
           x="10.38076"
           y="13.110988">10</tspan></text>
    </g>
    <g
       id="g56"
       inkscape:label="buffs"
       style="display:none">
      <circle
         style="opacity:1;fill:#000000;fill-opacity:1;stroke-width:0.727001"
         id="path54"
         cx="34.086224"
         cy="16.265474"
         r="3.6071498" />
      <circle
         style="opacity:1;fill:#000000;fill-opacity:1;stroke-width:0.727001"
         id="circle54"
         cx="42.140263"
         cy="16.265474"
         r="3.6071498" />
      <circle
         style="opacity:1;fill:#000000;fill-opacity:1;stroke-width:0.727001"
         id="circle55"
         cx="50.544868"
         cy="16.265474"
         r="3.6071498" />
      <circle
         style="opacity:1;fill:#000000;fill-opacity:1;stroke-width:0.727001"
         id="circle56"
         cx="58.808395"
         cy="16.265474"
         r="3.6071498" />
    </g>
  </g>
</svg>
