<?xml version="1.0" encoding="UTF-8" standalone="no"?>
<!-- Created with Inkscape (http://www.inkscape.org/) -->

<svg
   width="250"
   height="250"
   viewBox="0 0 66.145832 66.145833"
   version="1.1"
   id="svg1"
   inkscape:version="1.3.1 (9b9bdc1480, 2023-11-25, custom)"
   sodipodi:docname="hpbar8.svg"
   xmlns:inkscape="http://www.inkscape.org/namespaces/inkscape"
   xmlns:sodipodi="http://sodipodi.sourceforge.net/DTD/sodipodi-0.dtd"
   xmlns="http://www.w3.org/2000/svg"
   xmlns:svg="http://www.w3.org/2000/svg">
  <sodipodi:namedview
     id="namedview1"
     pagecolor="#828282"
     bordercolor="#000000"
     borderopacity="0.25"
     inkscape:showpageshadow="2"
     inkscape:pageopacity="0.0"
     inkscape:pagecheckerboard="0"
     inkscape:deskcolor="#d1d1d1"
     inkscape:document-units="mm"
     inkscape:zoom="3.2479097"
     inkscape:cx="89.442142"
     inkscape:cy="92.828936"
     inkscape:window-width="2560"
     inkscape:window-height="1531"
     inkscape:window-x="0"
     inkscape:window-y="0"
     inkscape:window-maximized="1"
     inkscape:current-layer="layer1" />
  <defs
     id="defs1">
    <inkscape:path-effect
       effect="fillet_chamfer"
       id="path-effect19"
       is_visible="true"
       lpeversion="1"
       nodesatellites_param="F,0,0,1,0,0,0,1 @ F,0,0,1,0,0,0,1 @ F,0,0,1,0,0,0,1 @ F,0,0,1,0,0.39361335,0,1 @ F,0,0,1,0,0.41649122,0,1 @ F,0,0,1,0,0.3660747,0,1 @ F,0,0,1,0,0,0,1 @ F,0,0,1,0,0,0,1 @ F,0,0,1,0,0,0,1 @ F,0,0,1,0,0.47226013,0,1 @ F,0,0,1,0,0.41934221,0,1 @ F,0,0,1,0,0.57696018,0,1 | F,0,0,1,0,0,0,1 @ F,0,0,1,0,0.60018744,0,1 @ F,0,0,1,0,0.65470418,0,1 @ F,0,0,1,0,0.37087745,0,1 | F,0,0,1,0,0,0,1 @ F,0,0,1,0,0.19556314,0,1 @ F,0,0,1,0,0,0,1 @ F,0,0,1,0,0,0,1 @ F,0,0,1,0,0,0,1 @ F,0,0,1,0,0,0,1 @ F,0,0,1,0,0,0,1 | F,0,0,1,0,0,0,1 @ F,0,0,1,0,0.29757066,0,1 @ F,0,0,1,0,0.23681934,0,1 @ F,0,0,1,0,0,0,1 @ F,0,0,1,0,0,0,1 @ F,0,0,1,0,0,0,1"
       radius="0"
       unit="px"
       method="auto"
       mode="F"
       chamfer_steps="1"
       flexible="false"
       use_knot_distance="true"
       apply_no_radius="true"
       apply_with_radius="true"
       only_selected="false"
       hide_knots="false" />
    <filter
       style="color-interpolation-filters:sRGB;"
       inkscape:label="Diffuse Light"
       id="filter58"
       x="-0.0083555779"
       y="-0.030261834"
       width="1.0167112"
       height="1.0605237">
      <feGaussianBlur
         in="SourceGraphic"
         stdDeviation="0.2"
         result="blur"
         id="feGaussianBlur57" />
      <feDiffuseLighting
         diffuseConstant="1"
         surfaceScale="10"
         lighting-color="rgb(253,189,91)"
         result="diffuse"
         id="feDiffuseLighting57">
        <feDistantLight
           elevation="38"
           azimuth="21"
           id="feDistantLight57" />
      </feDiffuseLighting>
      <feComposite
         in="diffuse"
         in2="diffuse"
         operator="arithmetic"
         k1="1"
         result="composite1"
         id="feComposite57" />
      <feComposite
         in="composite1"
         in2="SourceGraphic"
         k1="1"
         operator="arithmetic"
         k3="1"
         result="composite2"
         id="feComposite58" />
    </filter>
  </defs>
  <g
     inkscape:label="Layer 1"
     inkscape:groupmode="layer"
     id="layer1">
    <path
       id="path19"
       style="opacity:1;fill:#483e37;stroke-width:0.727001;filter:url(#filter58)"
       d="m 11.323857,5.7092122 c -4.3800381,2.86e-5 -7.9307535,3.5507437 -7.9307825,7.9307818 2.89e-5,4.380038 3.5507443,7.930753 7.9307825,7.930782 2.137719,-0.0124 4.173967,-0.886892 5.652936,-2.415217 0.151158,-0.156202 0.442826,-0.289527 0.660212,-0.289527 l 7.916737,0.288011 c 0.230022,0 0.416491,-0.186469 0.416491,-0.416491 l -0.58677,-4.188399 c 0,-0.202178 -0.163897,-0.366075 -0.366075,-0.366075 L 19.20658,14.067872 c 0.01989,-0.142166 0.03592,-0.284845 0.04806,-0.427881 -0.01135,-0.128319 -0.02582,-0.256342 -0.04341,-0.383956 l 41.15624,-0.529167 c 0.260822,0 0.47226,-0.211438 0.47226,-0.47226 L 60.425769,6.4029563 c 0,-0.2315963 -0.187746,-0.4193422 -0.419342,-0.4193422 L 15.370889,6.5127808 c -0.318646,0 -0.808508,-0.1154346 -1.104204,-0.2339867 C 13.332501,5.904256 12.333836,5.7102913 11.323857,5.7092122 Z m 5.481319,2.2665284 40.840425,-0.3563583 c 0.331474,0 0.600187,0.2687131 0.600187,0.6001874 l 0.447706,2.3896383 c 0,0.361583 -0.293121,0.654704 -0.654704,0.654704 l -38.641164,0.529167 c -0.20483,0 -0.410281,-0.161417 -0.469167,-0.357581 -0.395009,-1.315872 -1.12585,-2.5087859 -2.12328,-3.4597574 z m -5.481319,0.3250447 c 2.154567,0.018232 4.080003,1.328566 4.893577,3.3100477 0.04103,0.09992 0.10208,0.26413 0.13627,0.366576 0.138101,0.413799 0.225048,0.843202 0.258719,1.278629 0.02152,0.127331 0.03841,0.2554 0.05064,0.383956 -5.2e-5,2.948742 -2.390467,5.339157 -5.339209,5.339209 C 8.3751119,18.979151 5.9846971,16.588736 5.9846446,13.639994 5.9846972,10.691252 8.375112,8.3008375 11.323854,8.3007853 Z M 19.105811,14.962394 24.1552,15.0776 c 0.164301,0.0037 0.264672,0.136553 0.297571,0.297571 l 0.529167,2.589934 c 0.02618,0.128144 -0.106103,0.241252 -0.236819,0.236819 l -6.794793,-0.230411 v -0.0646 c 0.578972,-0.893963 0.971948,-1.895385 1.155485,-2.944523 z"
       sodipodi:nodetypes="ccccccccccccccccccccccccccccccccccsccssssccccs" />
  </g>
</svg>
