<?xml version="1.0" encoding="UTF-8" standalone="no"?>
<!-- Created with Inkscape (http://www.inkscape.org/) -->

<svg
   width="250"
   height="250"
   viewBox="0 0 66.145832 66.145833"
   version="1.1"
   id="svg1"
   inkscape:version="1.3.1 (9b9bdc1480, 2023-11-25, custom)"
   sodipodi:docname="hpbar6.svg"
   xmlns:inkscape="http://www.inkscape.org/namespaces/inkscape"
   xmlns:sodipodi="http://sodipodi.sourceforge.net/DTD/sodipodi-0.dtd"
   xmlns="http://www.w3.org/2000/svg"
   xmlns:svg="http://www.w3.org/2000/svg">
  <sodipodi:namedview
     id="namedview1"
     pagecolor="#787878"
     bordercolor="#000000"
     borderopacity="0.25"
     inkscape:showpageshadow="2"
     inkscape:pageopacity="0.0"
     inkscape:pagecheckerboard="0"
     inkscape:deskcolor="#d1d1d1"
     inkscape:document-units="mm"
     inkscape:zoom="6.4958194"
     inkscape:cx="101.83473"
     inkscape:cy="84.746815"
     inkscape:window-width="2560"
     inkscape:window-height="1531"
     inkscape:window-x="0"
     inkscape:window-y="0"
     inkscape:window-maximized="1"
     inkscape:current-layer="layer1" />
  <defs
     id="defs1">
    <filter
       style="color-interpolation-filters:sRGB;"
       inkscape:label="Diffuse Light"
       id="filter180"
       x="-0.0045362306"
       y="-0.019819415"
       width="1.0090725"
       height="1.0396388">
      <feGaussianBlur
         in="SourceGraphic"
         stdDeviation="0.1"
         result="blur"
         id="feGaussianBlur179" />
      <feDiffuseLighting
         diffuseConstant="1"
         surfaceScale="10"
         lighting-color="rgb(253,246,91)"
         result="diffuse"
         id="feDiffuseLighting179">
        <feDistantLight
           elevation="130"
           azimuth="71"
           id="feDistantLight179" />
      </feDiffuseLighting>
      <feComposite
         in="diffuse"
         in2="diffuse"
         operator="arithmetic"
         k1="1"
         result="composite1"
         id="feComposite179" />
      <feComposite
         in="composite1"
         in2="SourceGraphic"
         k1="1"
         operator="arithmetic"
         k3="1"
         result="composite2"
         id="feComposite180" />
    </filter>
  </defs>
  <g
     inkscape:label="Layer 1"
     inkscape:groupmode="layer"
     id="layer1">
    <path
       d="m 12.394076,5.3908854 a 2.0823095,2.0823095 0 0 0 -2.082561,2.0820435 2.0823095,2.0823095 0 0 0 0.01447,0.072347 5.0000004,4.9999999 0 0 0 -0.3260786,-0.045475 5.0000004,4.9999999 0 0 0 -4.9996948,5.0002111 5.0000004,4.9999999 0 0 0 4.9996948,5.000212 5.0000004,4.9999999 0 0 0 4.3036136,-2.461865 h 42.19174 c 0.782418,0 1.412316,-0.629899 1.412316,-1.412317 v -1.973007 c 0,-0.782418 -0.629898,-1.412316 -1.412316,-1.412316 H 14.459066 A 5.0000004,4.9999999 0 0 0 13.673067,9.1095215 2.0823095,2.0823095 0 0 0 14.476119,7.4729289 2.0823095,2.0823095 0 0 0 12.394076,5.3908854 Z m 0,0.4919597 a 1.5901923,1.5901923 0 0 1 1.590083,1.5900838 1.5901923,1.5901923 0 0 1 -0.703316,1.3136149 1.5901923,1.5901923 0 0 1 -0.886767,0.2769857 1.5901923,1.5901923 0 0 1 -0.599964,-0.1266073 4.0377635,4.0377631 0 0 1 0.8816,0.5984131 4.0377635,4.0377631 0 0 1 0.67076,0.7141687 4.0377635,4.0377631 0 0 1 0.346749,0.619083 h 1.027844 41.393339 c 0.555242,0 1.002523,0.44677 1.002523,1.002006 v 1.469161 c 0,0.555242 -0.447281,1.002006 -1.002523,1.002006 H 14.647168 13.666866 c -0.02603,0 -0.05044,-0.0058 -0.07596,-0.0078 a 4.0377635,4.0377631 0 0 1 -0.43512,0.67701 4.0377635,4.0377631 0 0 1 -3.1558796,1.527039 4.0377635,4.0377631 0 0 1 -4.0374796,-4.037997 4.0377635,4.0377631 0 0 1 4.0374796,-4.0379962 4.0377635,4.0377631 0 0 1 0.6728276,0.1116211 4.0377635,4.0377631 0 0 1 0.902787,0.2537313 1.5901923,1.5901923 0 0 1 -0.733806,-1.2107788 1.5901923,1.5901923 0 0 1 -0.03824,-0.1436605 1.5901923,1.5901923 0 0 1 1.590601,-1.5900838 z"
       style="display:inline;fill:#ffcc00;stroke-width:0.780884;filter:url(#filter180)"
       id="path176" />
    <path
       style="display:inline;fill:#917c6f;stroke-width:0.780884"
       d="m 12.394076,5.8828451 c -0.878356,-2.258e-4 -1.590541,0.7117276 -1.590601,1.5900838 0.0105,0.048457 -0.0022,0.096396 0.01278,0.1436605 0.04154,0.4962251 0.338578,0.9443412 0.759263,1.2107788 0.215232,0.1143524 -0.0016,0.00287 0.218591,0.109603 0.18988,0.080725 0.393656,0.1237273 0.599964,0.1266073 0.316571,-0.002 0.625339,-0.098446 0.886767,-0.2769857 0.437774,-0.2941439 0.701225,-0.7862039 0.703316,-1.3136149 -6e-5,-0.8781539 -0.711929,-1.5900234 -1.590083,-1.5900838 z"
       id="path182"
       sodipodi:nodetypes="cccccccccc" />
    <path
       d="M 11.575521,8.8273682 C 11.285468,8.708015 10.98249,8.6228625 10.672734,8.5736369 10.452007,8.5175212 10.226929,8.480181 9.9999064,8.4620158 7.7699442,8.4621726 5.9622981,10.270049 5.9624268,12.500012 c -1.292e-4,2.229963 1.8075171,4.03784 4.0374796,4.037997 1.2295906,-0.0019 2.3913096,-0.564063 3.1558796,-1.527039 0.16722,-0.210601 0.312982,-0.437381 0.435116,-0.676961 0.02552,0.002 0.04993,0.0078 0.07596,0.0078 H 14.647164 56.1144 c 0.555242,0 1.002523,-0.446764 1.002523,-1.002006 v -1.469161 c 0,-0.555229 -0.447281,-1.002006 -1.002523,-1.002006 H 14.721065 13.693221 C 13.59603,10.652205 13.479999,10.445283 13.346472,10.249504 13.152704,9.9851016 12.927459,9.7452803 12.675712,9.5353353 12.40957,9.2977973 12.113123,9.0965722 11.794112,8.9369222 c -0.211955,-0.1218776 0.05051,0.025137 -0.218591,-0.109554 z"
       style="display:inline;fill:#917c6f;stroke-width:0.780884;fill-opacity:1"
       id="path190"
       sodipodi:nodetypes="cccccccscsssscccccc" />
  </g>
</svg>
